<svg xmlns="http://www.w3.org/2000/svg" width="58.691" height="90.957" viewBox="0 0 58.691 90.957">
  <g id="Group_1121" data-name="Group 1121" transform="translate(-175.009 2.053)">
    <rect id="Rectangle_700" data-name="Rectangle 700" width="31.698" height="9.307" rx="1.751" transform="translate(188.713 23.355)" fill="none" stroke="#c00" stroke-miterlimit="10" stroke-width="2"/>
    <rect id="Rectangle_701" data-name="Rectangle 701" width="51.286" height="9.307" rx="1.751" transform="translate(179.197 66.906)" fill="none" stroke="#c00" stroke-miterlimit="10" stroke-width="2"/>
    <rect id="Rectangle_702" data-name="Rectangle 702" width="56.691" height="11.691" rx="0.707" transform="translate(176.009 76.213)" fill="none" stroke="#c00" stroke-miterlimit="10" stroke-width="2"/>
    <line id="Line_106" data-name="Line 106" x1="8.164" y2="34.244" transform="translate(187.135 32.662)" fill="none" stroke="#c00" stroke-miterlimit="10" stroke-width="2"/>
    <line id="Line_107" data-name="Line 107" x2="8.164" y2="34.244" transform="translate(214.334 32.607)" fill="none" stroke="#c00" stroke-miterlimit="10" stroke-width="2"/>
    <line id="Line_108" data-name="Line 108" x1="7.587" y1="11.059" transform="translate(187.231 12.296)" fill="none" stroke="#c00" stroke-miterlimit="10" stroke-width="2"/>
    <line id="Line_109" data-name="Line 109" y1="11.059" x2="7.587" transform="translate(214.622 12.296)" fill="none" stroke="#c00" stroke-miterlimit="10" stroke-width="2"/>
    <path id="Path_3067" data-name="Path 3067" d="M215.855,12.2h-35.33a.586.586,0,0,1-.585-.585V-.468a.586.586,0,0,1,.585-.585h5.665c.954,0,.787,1.486.787,1.486l.024,3.8s-.1,1.055.864,1.055h5.715c.859,0,.672-.96.672-.96l.072-4.032s-.181-1.345.739-1.345h5.952c1.114,0,1.018,1.467,1.018,1.467l.072,3.862s-.056,1.007.864,1.007h5.691c.859,0,.7-1.151.7-1.151s.024-3.41.024-4.226.335-.96,1.055-.96h5.42a.586.586,0,0,1,.582.585V11.616A.586.586,0,0,1,215.855,12.2Z" transform="translate(6.52 0)" fill="none" stroke="#c00" stroke-miterlimit="10" stroke-width="2"/>
  </g>
</svg>
