<?xml version="1.0" encoding="utf-8"?>
<!-- Generator: Adobe Illustrator 27.2.0, SVG Export Plug-In . SVG Version: 6.00 Build 0)  -->
<svg version="1.1" id="Capa_1" xmlns="http://www.w3.org/2000/svg" xmlns:xlink="http://www.w3.org/1999/xlink" x="0px" y="0px"
	 viewBox="0 0 294.1 319.1" style="enable-background:new 0 0 294.1 319.1;" xml:space="preserve">
<style type="text/css">
	.st0{fill:#CC0000;}
</style>
<g id="Livello_2">
	<g id="Layer_1">
		<path class="st0" d="M121.8,107.9v-3.3h-12.5V54.9h11.2V38.2L60.9,5.4L1.3,38.2v16.7h11.2v49.7H0v10.8h121.8
			C121.8,115.5,121.8,107.9,121.8,107.9z M40.6,104.7H25V54.9h15.6L40.6,104.7z M96.8,104.7H81.2V54.9h15.6L96.8,104.7z M68.7,54.9
			v49.7H53.1V54.9H68.7z"/>
		<path class="st0" d="M231.1,187.3h-4.5l10.4,20.5l-12.7,67.1l-12.7-67.1l10.4-20.5h-4.5c-30.4,0-55,24.6-55,55v21.8
			c0,30.4,24.6,55,55,55h13.7c30.4,0,55-24.6,55-55c0,0,0,0,0,0v-21.8C286.2,211.9,261.5,187.3,231.1,187.3
			C231.1,187.3,231.1,187.3,231.1,187.3z"/>
		<path class="st0" d="M187.9,144.9c0,20.1,16.3,36.4,36.4,36.4s36.4-16.3,36.4-36.4s-16.3-36.4-36.4-36.4S187.9,124.8,187.9,144.9
			L187.9,144.9z"/>
		<path class="st0" d="M132.7,226.1C94.1,218,66.4,184,66.3,144.5c0-3-2.4-5.4-5.4-5.4c-3,0-5.4,2.4-5.4,5.4
			c0.1,44.6,31.4,83,75,92.1c0.4,0.1,0.7,0.1,1.1,0.1c3,0,5.4-2.4,5.4-5.4C137,228.8,135.2,226.6,132.7,226.1L132.7,226.1z"/>
		<path class="st0" d="M210.2,87.4c2.1,2.2,5.5,2.3,7.6,0.2c2.2-2.1,2.3-5.5,0.2-7.6l0,0c-18.2-19.3-40.9-29.5-65.7-29.5
			c-3,0-5.4,2.4-5.4,5.4s2.4,5.4,5.4,5.4c0,0,0,0,0,0C174.4,61.3,193.9,70.1,210.2,87.4z"/>
		<path class="st0" d="M130.7,277c-64.6-9-113.2-63.5-114.8-128.7c-0.1-3-2.6-5.3-5.6-5.2s-5.3,2.6-5.2,5.6
			c1.7,70.5,54.3,129.3,124.1,139.1c0.3,0,0.5,0,0.8,0c3,0,5.4-2.5,5.3-5.5c0-2.7-2-4.9-4.6-5.3V277z"/>
		<path class="st0" d="M149.6,0c-9.9,0-19.7,1-29.4,3c-2.9,0.5-4.9,3.3-4.4,6.3s3.3,4.9,6.3,4.4c0.1,0,0.2,0,0.4-0.1
			c9-1.8,18.1-2.8,27.2-2.8c73.7,0,133.7,60,133.7,133.7c0,7.6-0.6,15.2-1.9,22.8c-0.5,2.9,1.5,5.7,4.4,6.2c0,0,0,0,0,0
			c0.3,0.1,0.6,0.1,0.9,0.1c2.6,0,4.9-1.9,5.3-4.5c1.4-8.1,2.1-16.3,2.1-24.6C294.1,64.8,229.3,0,149.6,0z"/>
	</g>
</g>
<g id="Group_1116" transform="translate(-519.627 93.482)">
	<path id="Path_3045" class="st0" d="M265.2,132.2l-0.4-0.1c-0.1,0-2.1-0.6-5.3-1.8c-3.5-1.4-14.7-7.7-20-13
		c-5.4-5.5-6.3-20.3-6.4-20.9V50.3l1.3,0.1c0.1,0,12.2,0.5,20.5-1.4c3.4-0.6,6.6-2.2,9.2-4.5c1.1-1.4,3.1-1.6,4.5-0.5l0,0
		c2.4,1.7,7.6,4.5,10.8,5c5.4,0.8,10.9,1.3,16.4,1.4h1.3v45.8c0,0.7-0.6,1.3-1.3,1.3l0,0c-0.7,0-1.3-0.6-1.3-1.3l0,0V52.9
		c-5.2-0.2-10.4-0.6-15.5-1.4c-3.7-0.6-9.4-3.6-11.9-5.4c-0.4-0.3-0.6-0.4-1.2,0.2c-2.9,2.7-6.5,4.4-10.4,5.2
		c-7,1.6-16.4,1.6-19.8,1.5v43.2c0,0.1,0.9,14.4,5.6,19.2c5,5,15.8,11.2,19.1,12.5c2.3,0.9,3.9,1.4,4.6,1.6l14-5.8
		c0.7-0.3,1.4,0,1.7,0.7c0.3,0.7,0,1.4-0.7,1.7l0,0L265.2,132.2z"/>
	<path id="Path_3046" class="st0" d="M254.5,117.9c-0.2,0-0.3,0-0.5-0.1c-0.3-0.1-6.7-2.7-9.5-6.7c-3.1-4.1-4.9-9-5.4-14.1
		c-0.6-5.6,0-36,0-37.3v-1.4l1.4,0.1c0.1,0,7.8,0.7,10.6,0.3c3.2-0.6,6.3-1.5,9.2-2.9l2.7-1.3c0.6-0.3,1.4,0,1.7,0.6
		c0.3,0.6,0,1.4-0.6,1.7l0,0l-2.7,1.3c-3.2,1.5-6.5,2.6-10,3.2c-3.2,0.2-6.5,0.1-9.7-0.2c-0.1,6.1-0.5,30.9,0,35.6
		c0.4,4.7,2.1,9.1,4.9,12.8c2.4,3.4,8.3,5.8,8.4,5.8c0.7,0.3,1,1,0.7,1.7l0,0C255.5,117.6,255.1,117.9,254.5,117.9z"/>
	<path id="Path_3047" class="st0" d="M261.8,99.2l-7.5-7.5c-0.5-0.5-0.5-1.3,0-1.8s1.3-0.5,1.8,0l5.6,5.6L280.4,77
		c0.5-0.5,1.3-0.5,1.8,0s0.5,1.3,0,1.8L261.8,99.2z"/>
</g>
</svg>
