<?xml version="1.0" encoding="utf-8"?>
<!-- Generator: Adobe Illustrator 27.2.0, SVG Export Plug-In . SVG Version: 6.00 Build 0)  -->
<svg version="1.1" id="Capa_1" xmlns="http://www.w3.org/2000/svg" xmlns:xlink="http://www.w3.org/1999/xlink" x="0px" y="0px"
	 viewBox="0 0 300.7 309" style="enable-background:new 0 0 300.7 309;" xml:space="preserve">
<style type="text/css">
	.st0{fill:#CC0000;}
</style>
<g id="Livello_2">
	<g id="Layer_1">
		<path class="st0" d="M300.7,277.6l-0.9-5.4c-1.9-11.3-4-22.7-6-33.7c-4.7-26-9.5-35.7-12.9-54.8h12.9c2.8,0,5-2.2,5-5v-23.4
			c0-2.8-2.2-5-5-5H159.4c-2.8,0-5,2.2-5,5v23.4c0,2.8,2.2,5,5,5h12.9c-3.5,19.1-8.3,28.9-13,54.8c-2,11-4.1,22.4-6,33.7l-0.9,5.4
			l5.4,0.6l3,0.3c-0.5,2.9-1,5.8-1.6,8.8l-0.9,5l5,0.5c2.2,0.2,4.4,0.4,6.6,0.6c-0.5,2.6-1,5.3-1.4,8l-0.8,4.2l4.3,0.5
			c18.1,2,36.2,3,54.4,3c18.2,0,36.4-1,54.4-3l4.3-0.5l-0.7-4.2l-1.4-8c2.2-0.2,4.4-0.4,6.5-0.6l5-0.5l-0.9-5
			c-0.5-2.9-1-5.8-1.5-8.8c1-0.1,2-0.2,3-0.3L300.7,277.6z M164.4,173.6v-13.2h124.3v13.3h-9.4c-0.4-3.1-0.8-6.3-1.1-9.9H175
			c-0.3,3.6-0.7,6.9-1.1,9.9L164.4,173.6z M249.3,300.2c-15.9,0.8-31.7,0.7-47.6-0.1c-2.2-1.7-4.2-3.4-6.2-4.9
			c10.4,0.6,20.8,0.8,31.1,0.9c9.7,0,19.3-0.3,29-0.8C253.6,296.9,251.5,298.5,249.3,300.2L249.3,300.2z M252.9,286
			c-18.4,0.9-36.8,0.8-55.2-0.1c-2.3-1.8-4.4-3.5-6.4-5c11.8,0.7,23.5,1,35.2,1c10.9,0,21.8-0.3,32.8-0.9
			C257.3,282.6,255.2,284.3,252.9,286z M255.2,270.9c-20,0.9-40,0.9-60.1-0.1c-10-7.8-17.3-14-27.1-22.5c0.5-2.7,1-5.3,1.4-8
			c5.7-31.4,11.5-39.8,15-68.6h37.8c0,1.9-0.1,3.7-0.1,5.6c-6.1,0.4-11.2,2.1-15.3,5.3c-4.6,3.3-7.6,8.4-8.1,14
			c-0.6,6.3,0.9,10.7,4.7,13.2s9.9,4.8,18.2,6.8c-0.1,7.6-0.3,15.2-0.4,22.9c-9.5-1.3-14.1-5.6-13.6-12.7c-5.7-0.1-8.6-0.2-14.5-0.4
			c-1,13.3,8.6,21.6,27.9,23c-0.1,4.1-0.1,8.2-0.2,12.3c4.6,0.1,6.9,0.1,11.4,0c-0.1-4.1-0.1-8.2-0.2-12.3
			c8.7-0.6,15.8-2.8,20.8-6.6c5.8-4.4,8.1-9.8,7.1-16c-1-6.6-4-11.1-8.7-13.7s-11.4-4.7-20-6.7c-0.1-6.5-0.2-13-0.2-19.4
			c6,1,9.4,4,10,9.2l12.6-0.1c-1.5-11.3-8.9-17.5-22.7-18.7c0-1.9-0.1-3.8-0.1-5.6h37.8c3.5,28.8,9.3,37.2,15,68.6
			c0.4,2.1,0.8,4.2,1.1,6.3C274.2,255.7,266.6,262.2,255.2,270.9L255.2,270.9z M222.1,186.9c-0.1,5.7-0.1,11.4-0.2,17.1
			c-2.6-0.6-5-1.5-7.4-2.6c-2.1-1.1-3.3-3.4-3-5.8c0.1-2.9,1.8-5.5,4.4-6.8c2-1,4.1-1.6,6.2-1.8V186.9z M231.5,219
			c3.1,0.7,6.2,1.7,9.2,2.8c2.8,1,4.8,3.6,4.9,6.6c0.3,3.2-1.1,5.9-4.1,8.1c-2.9,1.9-6.2,2.9-9.6,3.2
			C231.8,232.8,231.6,225.9,231.5,219L231.5,219z"/>
		<path class="st0" d="M124,227.1c-27.9-9-49.1-31.9-55.8-60.5c-0.5-2.9-3.2-4.9-6.2-4.5s-4.9,3.2-4.5,6.2c0,0.2,0.1,0.4,0.2,0.7
			c7.5,32.3,31.5,58.2,63,68.4c0.5,0.2,1.1,0.3,1.7,0.3c3-0.1,5.4-2.5,5.3-5.5C127.6,229.9,126.2,227.9,124,227.1z"/>
		<path class="st0" d="M163.3,54.7c-3-0.4-5.7,1.6-6.1,4.6s1.6,5.7,4.6,6.1l0,0c30.1,4.5,55.3,25,65.8,53.6c0.8,2.1,2.8,3.5,5.1,3.5
			c0.6,0,1.3-0.1,1.9-0.3c2.8-1,4.2-4.1,3.2-6.9C225.8,83,197.3,59.8,163.3,54.7z"/>
		<path class="st0" d="M115.7,277.2c-57.1-14.8-98.2-66.3-100-125.4c-0.2-3-2.7-5.3-5.7-5.1c-2.9,0.2-5.1,2.5-5.1,5.4
			C6.8,216,51.3,271.7,113,287.7c0.4,0.1,0.9,0.2,1.4,0.2c3,0,5.4-2.5,5.4-5.4C119.7,280,118.1,277.9,115.7,277.2L115.7,277.2z"/>
		<path class="st0" d="M159.8,14.4c57.2,4.4,105.2,44.8,119.2,100.4c0.6,2.4,2.8,4.1,5.2,4.1c0.4,0,0.9-0.1,1.3-0.2
			c2.9-0.7,4.6-3.7,3.9-6.5c0,0,0,0,0,0C274.3,52.1,222.4,8.4,160.6,3.7c-3-0.1-5.5,2.2-5.6,5.2C154.9,11.7,156.9,14.1,159.8,14.4z"
			/>
		<path class="st0" d="M134,84.5c-2.8-0.9-5.7,0.7-6.5,3.4c0,0,0,0,0,0.1c-9.7,31.6-43.2,49.4-74.8,39.7S3.2,84.4,12.9,52.8
			S56.1,3.4,87.8,13.2c7.2,2.2,13.9,5.7,19.8,10.4L96,23.4l7.7,7.9l18.4,0.2l0.2-18.4l-7.7-7.9l-0.1,10.4C84.3-8.7,40.1-4,15.7,26.2
			S-4,100.6,26.2,125s74.4,19.7,98.8-10.5c5.6-6.9,9.8-14.9,12.5-23.4C138.3,88.3,136.8,85.4,134,84.5C134,84.5,134,84.5,134,84.5z"
			/>
		<path class="st0" d="M71.6,31.1c-2.5-0.2-4.6,1.7-4.8,4.2l-2.6,36.5l26.3,30.7c1.7,1.8,4.5,1.9,6.4,0.2c1.7-1.6,1.9-4.3,0.5-6.1
			L73.4,68.7l2.3-32.8C75.9,33.5,74.1,31.3,71.6,31.1C71.6,31.1,71.6,31.1,71.6,31.1z"/>
	</g>
</g>
<g id="Group_1116" transform="translate(-519.627 93.482)">
	<path id="Path_3045" class="st0" d="M267.4,137.9l-0.4-0.1c-0.1,0-2.1-0.6-5.3-1.8c-3.5-1.4-14.7-7.7-20-13
		c-5.4-5.5-6.3-20.3-6.4-20.9V56l1.3,0.1c0.1,0,12.2,0.5,20.5-1.4c3.4-0.6,6.6-2.2,9.2-4.5c1.1-1.4,3.1-1.6,4.5-0.5l0,0
		c2.4,1.7,7.6,4.5,10.8,5c5.4,0.8,10.9,1.3,16.4,1.4h1.3v45.8c0,0.7-0.6,1.3-1.3,1.3l0,0c-0.7,0-1.3-0.6-1.3-1.3l0,0V58.6
		c-5.2-0.2-10.4-0.6-15.5-1.4c-3.7-0.6-9.4-3.6-11.9-5.4c-0.4-0.3-0.6-0.4-1.2,0.2c-2.9,2.7-6.5,4.4-10.4,5.2
		c-7,1.6-16.4,1.6-19.8,1.5v43.2c0,0.1,0.9,14.4,5.6,19.2c5,5,15.8,11.2,19.1,12.5c2.3,0.9,3.9,1.4,4.6,1.6l14-5.8
		c0.7-0.3,1.4,0,1.7,0.7c0.3,0.7,0,1.4-0.7,1.7l0,0L267.4,137.9z"/>
	<path id="Path_3046" class="st0" d="M256.7,123.6c-0.2,0-0.3,0-0.5-0.1c-0.3-0.1-6.7-2.7-9.5-6.7c-3.1-4.1-4.9-9-5.4-14.1
		c-0.6-5.6,0-36,0-37.3V64l1.4,0.1c0.1,0,7.8,0.7,10.6,0.3c3.2-0.6,6.3-1.5,9.2-2.9l2.7-1.3c0.6-0.3,1.4,0,1.7,0.6
		c0.3,0.6,0,1.4-0.6,1.7l0,0l-2.7,1.3c-3.2,1.5-6.5,2.6-10,3.2c-3.2,0.2-6.5,0.1-9.7-0.2c-0.1,6.1-0.5,30.9,0,35.6
		c0.4,4.7,2.1,9.1,4.9,12.8c2.4,3.4,8.3,5.8,8.4,5.8c0.7,0.3,1,1,0.7,1.7l0,0C257.7,123.3,257.3,123.6,256.7,123.6z"/>
	<path id="Path_3047" class="st0" d="M264,104.9l-7.5-7.5c-0.5-0.5-0.5-1.3,0-1.8s1.3-0.5,1.8,0l5.6,5.6l18.7-18.5
		c0.5-0.5,1.3-0.5,1.8,0s0.5,1.3,0,1.8L264,104.9z"/>
</g>
</svg>
