<?xml version="1.0" encoding="utf-8"?>
<!-- Generator: Adobe Illustrator 27.2.0, SVG Export Plug-In . SVG Version: 6.00 Build 0)  -->
<svg version="1.1" id="Capa_1" xmlns="http://www.w3.org/2000/svg" xmlns:xlink="http://www.w3.org/1999/xlink" x="0px" y="0px"
	 viewBox="0 0 346.9 320.5" style="enable-background:new 0 0 346.9 320.5;" xml:space="preserve">
<style type="text/css">
	.st0{fill:#CC0000;}
</style>
<g id="Livello_2">
	<g id="Layer_1">
		<path class="st0" d="M21.2,164.1c0.2,0,0.4,0,0.6,0c2.8,0,5.2-2.1,5.4-4.9c4.3-40.4,26.5-76.8,60.5-99.1c2.4-1.8,2.9-5.3,1.1-7.7
			c-1.7-2.2-4.7-2.9-7.1-1.5C44.9,75,20.9,114.4,16.3,158.1C16,161.1,18.2,163.8,21.2,164.1z"/>
		<path class="st0" d="M236.2,287.6c-45.1,29.3-103.3,29.1-148.3-0.3c-2.6-1.5-6-0.7-7.5,2c-1.4,2.4-0.8,5.6,1.5,7.2
			c48.7,31.8,111.5,32,160.3,0.4c2.5-1.7,3.3-5.1,1.6-7.6C242.1,286.7,238.7,286,236.2,287.6L236.2,287.6z"/>
		<path class="st0" d="M236.8,60.1c33.1,21.7,55.1,56.8,60.2,96.1c0.4,3,3.2,5.1,6.2,4.7c3-0.4,5.1-3.1,4.7-6.1
			c-5.5-42.5-29.3-80.4-65.1-103.9c-2.6-1.5-6-0.7-7.5,2C233.9,55.4,234.5,58.5,236.8,60.1L236.8,60.1z"/>
		<path class="st0" d="M37.2,202.9c2,0,3.6-0.6,3.6-1.3s-1.6-1.3-3.6-1.3s-3.6,0.6-3.6,1.3S35.2,202.9,37.2,202.9z"/>
		<path class="st0" d="M67.6,177.9c1.9,0,3.4-0.5,3.4-1.2s-1.5-1.2-3.4-1.2s-3.4,0.5-3.4,1.2S65.8,177.9,67.6,177.9z"/>
		<path class="st0" d="M82.4,243.5c1-0.9,1.5-2.1,1.6-3.4l0,0v-63.4l0,0c0-8.7-23-8.9-25.6-8.9s-25.6,0.2-25.6,8.9l0,0v15.5l0,0
			c-2.7-0.2-4.8-0.2-5.4-0.2c-2.8,0-27.3,0.3-27.3,9.6v67.6c0,9.3,24.5,9.5,27.3,9.5s27.3-0.3,27.3-9.5v-12.1c1,1.6,2.4,3.1,3.9,4.2
			l0,0c5.5,4,13,4,18.5,0l0,0C82.5,257.3,84.7,250,82.4,243.5z M5.9,229.6c7.4,3.1,19.5,3.2,21.5,3.2s14-0.1,21.4-3.2v18.1
			c-1.2,1.4-8.6,4-21.4,4s-20.2-2.6-21.5-4L5.9,229.6z M5.9,208c7.4,3.1,19.5,3.2,21.5,3.2s14-0.1,21.4-3.2l0,0v15
			c-1.2,1.4-8.6,4-21.4,4s-20.2-2.6-21.5-4L5.9,208L5.9,208z M54.6,229.1c1.4,0,2.8,0,3.8,0c0.5,0,1.5,0,3-0.1l-6.7,11.4L54.6,229.1
			L54.6,229.1z M73.4,227.7c1.7-0.4,3.4-0.9,5-1.5v10.1L73.4,227.7z M78.4,220.2C78.4,220.2,78.4,220.2,78.4,220.2L78.4,220.2z
			 M78.4,197L78.4,197L78.4,197z M78.4,203v17c-0.7,0.8-3.5,2-8,2.8l-2.7-4.6l-3.1,5.4c-1.9,0.2-4,0.2-6.3,0.2c-0.9,0-2.4,0-3.8-0.1
			v-17.8c1.4,0,2.8,0,3.8,0C60.1,206,71.5,205.8,78.4,203L78.4,203z M58.3,173.3c11.1,0,17.9,2.1,19.8,3.4
			c-1.9,1.4-8.7,3.4-19.8,3.4s-17.9-2.1-19.8-3.4C40.4,175.4,47.2,173.3,58.3,173.3L58.3,173.3z M38.2,182.7L38.2,182.7
			c7,2.9,18.3,3,20.1,3s13.2-0.1,20.1-3v14c-1.2,1.4-8.6,3.8-20.1,3.8c-1,0-2.5,0-3.9-0.1l0,0c-1.2-4.7-9.1-6.7-16.2-7.6l0,0V182.7z
			 M27.3,197.9c11.8,0,19.1,2.2,21.1,3.7c-2,1.4-9.2,3.7-21.1,3.7s-19.1-2.2-21.1-3.7C8.2,200.1,15.4,197.9,27.3,197.9z M27.3,272.9
			c-12.8,0-20.2-2.6-21.5-4v-14.5c7.4,3.1,19.5,3.2,21.5,3.2s14-0.1,21.4-3.2v14.5C47.5,270.3,40.1,272.9,27.3,272.9L27.3,272.9z"/>
		<path class="st0" d="M127.9,224.1c1.3,0,2.3-1,2.3-2.3v-19.1h6.6v-37.3h-6.6v-28.3c0-1.3-1-2.3-2.3-2.3s-2.3,1-2.3,2.3v28.3H119
			v37.3h6.6v19.1C125.6,223.1,126.6,224.1,127.9,224.1z"/>
		<path class="st0" d="M160.4,217.3c1.3,0,2.3-1,2.3-2.3v-24.1h6.6v-47.7h-6.6v-15.8c0-1.3-1-2.3-2.3-2.3c-1.3,0-2.3,1-2.3,2.3l0,0
			v15.8h-6.6v47.7h6.6V215C158.1,216.3,159.1,217.3,160.4,217.3z"/>
		<path class="st0" d="M192,221.3c1.3,0,2.3-1,2.3-2.3c0,0,0,0,0,0v-17.7h6.6v-30.5h-6.6v-31.6c0-1.3-1-2.3-2.3-2.3
			c-1.3,0-2.3,1-2.3,2.3v31.6h-6.6v30.5h6.6V219C189.7,220.3,190.7,221.3,192,221.3C192,221.3,192,221.3,192,221.3z"/>
		<path class="st0" d="M231.7,265.2V252c0-1.8-1.5-3.3-3.3-3.3c-1.8,0-3.3,1.5-3.3,3.3v13.3c0,1.8,1.5,3.3,3.3,3.3
			C230.2,268.6,231.7,267.1,231.7,265.2L231.7,265.2z"/>
		<path class="st0" d="M243.8,241.4c-1.8,0-3.3,1.5-3.3,3.3v0v20.5c0,1.8,1.5,3.3,3.3,3.3c1.8,0,3.3-1.5,3.3-3.3v-20.5
			C247.1,242.9,245.6,241.4,243.8,241.4z"/>
		<path class="st0" d="M259.2,234.2c-1.8,0-3.3,1.5-3.3,3.3v0v27.7c0,1.8,1.5,3.3,3.3,3.3s3.3-1.5,3.3-3.3l0,0v-27.7
			C262.5,235.7,261,234.2,259.2,234.2L259.2,234.2z"/>
		<path class="st0" d="M274.6,228.2c-1.8,0-3.3,1.5-3.3,3.3v0v33.7c0,1.8,1.5,3.3,3.3,3.3s3.3-1.5,3.3-3.3l0,0v-33.7
			C277.9,229.7,276.4,228.2,274.6,228.2L274.6,228.2z"/>
		<path class="st0" d="M290,244.4c-1.8,0-3.3,1.5-3.3,3.3v0v17.5c0,1.8,1.5,3.3,3.3,3.3s3.3-1.5,3.3-3.3v-17.5
			C293.3,245.9,291.8,244.4,290,244.4z"/>
		<path class="st0" d="M305.4,236.1c-1.8,0-3.3,1.5-3.3,3.3v0v25.8c0,1.8,1.5,3.3,3.3,3.3s3.3-1.5,3.3-3.3v-25.8
			C308.7,237.6,307.2,236.1,305.4,236.1C305.4,236.1,305.4,236.1,305.4,236.1z"/>
		<path class="st0" d="M320.8,226.5c-1.8,0-3.3,1.5-3.3,3.3v0v35.4c0,1.8,1.5,3.3,3.3,3.3s3.3-1.5,3.3-3.3l0,0v-35.4
			C324.1,228,322.7,226.5,320.8,226.5C320.8,226.5,320.8,226.5,320.8,226.5z"/>
		<path class="st0" d="M335.3,201.1l-6.1,3.8l7,1.6l-12.1,7.5v-23.7c0-1.8-1.5-3.3-3.3-3.3s-3.3,1.5-3.3,3.3v27.9l-8.8,5.4v-48.4
			c0-1.8-1.5-3.3-3.3-3.3s-3.3,1.5-3.3,3.3v52.5l-8.8,5.4v-33.3c0-1.8-1.5-3.3-3.3-3.3s-3.3,1.5-3.3,3.3v30l-8.8-10.7v-34.4
			c0-1.8-1.5-3.3-3.3-3.3s-3.3,1.5-3.3,3.3v33.5l-8.8,4.1v-20.4c0-1.8-1.5-3.3-3.3-3.3c-1.8,0-3.3,1.5-3.3,3.3v23.6l-8.8,4.1v-42.7
			c0-1.8-1.5-3.3-3.3-3.3c-1.8,0-3.3,1.5-3.3,3.3c0,0,0,0,0,0v45.8l-8.8,4.1v-34.9c0-1.8-1.5-3.3-3.3-3.3c-1.8,0-3.3,1.5-3.3,3.3
			c0,0,0,0,0,0v38l-7.6,3.6c-1.7,0.8-2.4,2.7-1.6,4.4c0.5,1.2,1.7,1.9,3,1.9c0.5,0,1-0.1,1.4-0.3l40.2-18.9l0,0l13.2-6.2l15.6,19
			l50.4-31.2l-1.6,7l6.1-3.8l2.7-11.6L335.3,201.1z"/>
		<path class="st0" d="M128.4,46.3c12.8,0,23.2-10.4,23.2-23.2S141.3,0,128.5,0s-23.2,10.4-23.2,23.2
			C105.3,36,115.6,46.3,128.4,46.3z M128.4,5.7c9.6,0,17.5,7.8,17.5,17.4s-7.8,17.5-17.4,17.5S111,32.8,111,23.2c0,0,0,0,0,0
			C111,13.5,118.8,5.7,128.4,5.7z"/>
		<path class="st0" d="M152.3,11.9h29.2c1.6,0,2.8-1.3,2.8-2.9c0-1.6-1.3-2.8-2.8-2.8h-29.2c-1.6,0-2.8,1.3-2.8,2.9
			C149.4,10.6,150.7,11.9,152.3,11.9z"/>
		<path class="st0" d="M190.7,11.9h15.8c1.6,0,2.8-1.3,2.8-2.9c0-1.6-1.3-2.8-2.8-2.8h-15.8c-1.6,0-2.9,1.3-2.9,2.8
			S189.1,11.9,190.7,11.9C190.7,11.9,190.7,11.9,190.7,11.9z"/>
		<path class="st0" d="M193.6,20.3H158c-1.6,0-2.9,1.3-2.9,2.9c0,1.6,1.3,2.9,2.9,2.9h35.6c1.6,0,2.9-1.3,2.9-2.9
			S195.2,20.3,193.6,20.3L193.6,20.3z"/>
		<path class="st0" d="M199.8,23.2c0,1.6,1.3,2.8,2.9,2.8h8.4c1.6,0,2.9-1.3,2.9-2.9s-1.3-2.9-2.9-2.9l0,0h-8.4
			C201.1,20.3,199.8,21.6,199.8,23.2C199.8,23.2,199.8,23.2,199.8,23.2z"/>
		<path class="st0" d="M149.4,37.3c0,1.6,1.3,2.8,2.9,2.8h19.5c1.6,0,2.9-1.3,2.9-2.8c0-1.6-1.3-2.9-2.9-2.9h-19.5
			C150.7,34.5,149.4,35.7,149.4,37.3C149.4,37.3,149.4,37.3,149.4,37.3z"/>
		<path class="st0" d="M177.5,37.3c0,1.6,1.3,2.8,2.9,2.8l0,0h26.1c1.6,0,2.9-1.3,2.9-2.8c0-1.6-1.3-2.9-2.9-2.9h-26.1
			C178.8,34.5,177.5,35.7,177.5,37.3z"/>
		<path class="st0" d="M219.7,68.6c0-12.8-10.4-23.2-23.2-23.2c-12.8,0-23.2,10.4-23.2,23.2c0,12.8,10.4,23.2,23.2,23.2l0,0
			C209.4,91.7,219.7,81.4,219.7,68.6z M196.6,86.1c-9.6,0-17.5-7.8-17.5-17.4s7.8-17.5,17.4-17.5S214,58.9,214,68.6c0,0,0,0,0,0
			C214,78.2,206.2,86,196.6,86.1z"/>
		<path class="st0" d="M140.7,54.5c0,1.6,1.3,2.8,2.9,2.8l0,0h29.2c1.6,0,2.9-1.3,2.9-2.8c0-1.6-1.3-2.9-2.9-2.9l0,0h-29.2
			C142,51.6,140.7,52.9,140.7,54.5C140.7,54.5,140.7,54.5,140.7,54.5z"/>
		<path class="st0" d="M134.4,57.3c1.6,0,2.9-1.3,2.9-2.9c0-1.6-1.3-2.8-2.9-2.8h-15.8c-1.6,0-2.8,1.3-2.8,2.8
			c0,1.6,1.3,2.9,2.8,2.9H134.4z"/>
		<path class="st0" d="M169.8,68.6c0-1.6-1.3-2.8-2.8-2.8h-35.6c-1.6,0-2.8,1.3-2.8,2.9c0,1.6,1.3,2.8,2.8,2.8H167
			C168.6,71.4,169.8,70.2,169.8,68.6z"/>
		<path class="st0" d="M111.1,68.6c0,1.6,1.3,2.9,2.8,2.9c0,0,0,0,0.1,0h8.4c1.6,0,2.8-1.3,2.8-2.9c0-1.6-1.3-2.8-2.8-2.8H114
			C112.4,65.7,111.1,67,111.1,68.6C111.1,68.6,111.1,68.6,111.1,68.6z"/>
		<path class="st0" d="M175.6,82.8c0-1.6-1.3-2.8-2.9-2.8h-19.5c-1.6,0-2.8,1.3-2.8,2.9c0,1.6,1.3,2.8,2.8,2.8h19.5
			C174.3,85.6,175.6,84.3,175.6,82.8C175.6,82.8,175.6,82.8,175.6,82.8z"/>
		<path class="st0" d="M147.5,82.8c0-1.6-1.3-2.8-2.9-2.8h-26c-1.6,0-2.9,1.3-2.9,2.8c0,1.6,1.3,2.9,2.8,2.9c0,0,0,0,0,0h26.1
			C146.2,85.6,147.5,84.3,147.5,82.8z"/>
		<path class="st0" d="M203,68.2c-1.6-0.9-3.3-1.5-5-1.9v-4.6c0.8,0.1,1.7,0.4,2.4,0.9l4.5-2.5c-1.9-1.7-4.3-2.8-6.9-3v-2.7h-3V57
			c-0.5,0.1-1,0.2-1.4,0.3c-3.4,1.2-5.1,3.3-5.1,6.3c0,1.3,0.3,2.5,0.9,3.6c1.1,1.4,2.9,2.5,5.5,3.2h0.2v4.9c-1-0.3-2-0.8-2.9-1.4
			l-4.6,2.3c2.1,2,4.7,3.3,7.5,3.7v2.8h3v-2.6l1.3-0.1c4.1-1,6.2-3.2,6.2-6.8C205.5,71.2,204.6,69.3,203,68.2z M193.4,63.4
			L193.4,63.4c0-0.9,0.6-1.5,1.6-1.7v3.8C194,64.9,193.4,64.3,193.4,63.4L193.4,63.4z M200.6,73.7c-0.2,1.3-1.3,2.1-2.6,2v-4.4
			c1.7,0.6,2.6,1.3,2.6,2.2V73.7z"/>
		<path class="st0" d="M121.4,28.8c0.1,0.2,0.2,0.3,0.2,0.5c2.4,3.4,5.3,5.1,8.8,5.1h1.2c0.7,0,1.5-0.1,2.2-0.2l0,0
			c0.8-0.2,1.6-0.5,2.4-0.8l-1.8-4.2c-0.6,0.3-1.2,0.6-1.8,0.7v0c-0.5,0.1-0.9,0.2-1.4,0.2H131c-0.3,0-0.6,0-0.9-0.1
			c-0.2,0-0.3-0.1-0.5-0.1c-0.5-0.2-1-0.4-1.4-0.6c-0.1,0-0.1-0.1-0.2-0.1c-0.4-0.2-0.7-0.5-1.1-0.8c-0.1-0.1-0.1-0.1-0.2-0.2
			c-0.1-0.1-0.2-0.3-0.3-0.4c-0.2-0.2-0.3-0.4-0.4-0.6h5.6v-2.7H125c-0.1-0.4-0.1-0.8-0.1-1.2c0-0.4,0.1-0.8,0.1-1.2h6.6v-2.7H126
			c0.1-0.2,0.2-0.4,0.4-0.6c0.1-0.1,0.2-0.3,0.3-0.4c0.1-0.1,0.1-0.1,0.2-0.2c0.3-0.3,0.7-0.6,1.1-0.8c0.1,0,0.1-0.1,0.2-0.1
			c0.4-0.3,0.9-0.5,1.4-0.7c0.2,0,0.3-0.1,0.5-0.1c0.2,0,0.4,0,0.6,0l0,0c0.1,0,0.2,0,0.2,0h0.5c1.1,0,2.2,0.3,3.1,0.9l1.8-4.2
			c-0.8-0.4-1.6-0.7-2.4-0.8l0,0c-0.7-0.2-1.5-0.2-2.2-0.2h-1.2c-3.5,0-6.4,1.7-8.8,5.1c-0.1,0.2-0.2,0.3-0.2,0.5
			c-0.3,0.6-0.6,1.2-0.9,1.8h-3V22h2.5c0,0.2,0,0.5,0,0.7v0.9c0,0.2,0,0.5,0,0.8h-2.5V27h3.1C120.8,27.6,121.1,28.2,121.4,28.8z"/>
	</g>
</g>
<g id="Group_1116" transform="translate(-519.627 93.482)">
	<path id="Path_3045" class="st0" d="M226.7,182.2l-0.4-0.1c-0.1,0-2.1-0.6-5.3-1.8c-3.5-1.4-14.7-7.7-20-13
		c-5.4-5.5-6.3-20.3-6.4-20.9v-46.1l1.3,0.1c0.1,0,12.2,0.5,20.5-1.4c3.4-0.6,6.6-2.2,9.2-4.5c1.1-1.4,3.1-1.6,4.5-0.5l0,0
		c2.4,1.7,7.6,4.5,10.8,5c5.4,0.8,10.9,1.3,16.4,1.4h1.3v45.8c0,0.7-0.6,1.3-1.3,1.3l0,0c-0.7,0-1.3-0.6-1.3-1.3l0,0v-43.3
		c-5.2-0.2-10.4-0.6-15.5-1.4c-3.7-0.6-9.4-3.6-11.9-5.4c-0.4-0.3-0.6-0.4-1.2,0.2c-2.9,2.7-6.5,4.4-10.4,5.2
		c-7,1.6-16.4,1.6-19.8,1.5v43.2c0,0.1,0.9,14.4,5.6,19.2c5,5,15.8,11.2,19.1,12.5c2.3,0.9,3.9,1.4,4.6,1.6l14-5.8
		c0.7-0.3,1.4,0,1.7,0.7c0.3,0.7,0,1.4-0.7,1.7l0,0L226.7,182.2z"/>
	<path id="Path_3046" class="st0" d="M216,167.9c-0.2,0-0.3,0-0.5-0.1c-0.3-0.1-6.7-2.7-9.5-6.7c-3.1-4.1-4.9-9-5.4-14.1
		c-0.6-5.6,0-36,0-37.3v-1.4l1.4,0.1c0.1,0,7.8,0.7,10.6,0.3c3.2-0.6,6.3-1.5,9.2-2.9l2.7-1.3c0.6-0.3,1.4,0,1.7,0.6
		c0.3,0.6,0,1.4-0.6,1.7l0,0l-2.7,1.3c-3.2,1.5-6.5,2.6-10,3.2c-3.2,0.2-6.5,0.1-9.7-0.2c-0.1,6.1-0.5,30.9,0,35.6
		c0.4,4.7,2.1,9.1,4.9,12.8c2.4,3.4,8.3,5.8,8.4,5.8c0.7,0.3,1,1,0.7,1.7l0,0C217,167.6,216.6,167.9,216,167.9z"/>
	<path id="Path_3047" class="st0" d="M223.3,149.2l-7.5-7.5c-0.5-0.5-0.5-1.3,0-1.8s1.3-0.5,1.8,0l5.6,5.6l18.7-18.5
		c0.5-0.5,1.3-0.5,1.8,0s0.5,1.3,0,1.8L223.3,149.2z"/>
</g>
</svg>
