<?xml version="1.0" encoding="utf-8"?>
<!-- Generator: Adobe Illustrator 27.2.0, SVG Export Plug-In . SVG Version: 6.00 Build 0)  -->
<svg version="1.1" id="Capa_1" xmlns="http://www.w3.org/2000/svg" xmlns:xlink="http://www.w3.org/1999/xlink" x="0px" y="0px"
	 viewBox="0 0 312.2 319.1" style="enable-background:new 0 0 312.2 319.1;" xml:space="preserve">
<style type="text/css">
	.st0{fill:#CC0000;}
</style>
<g id="Livello_2">
	<g id="Layer_1">
		<path class="st0" d="M139,68.4c1.8-0.1,3.7-0.2,5.5-0.2c30.6,0,58.7,16.7,73.2,43.6c0.9,1.7,2.8,2.8,4.8,2.8
			c0.9,0,1.8-0.2,2.6-0.7c2.6-1.4,3.6-4.7,2.2-7.3c-16.5-30.3-48.2-49.2-82.7-49.2c-2.1,0-4.1,0.1-6.2,0.2c-3,0.3-5.1,3-4.8,5.9
			C133.8,66.3,136.2,68.5,139,68.4L139,68.4z"/>
		<path class="st0" d="M63.4,170.2c-0.6-2.9-3.4-4.8-6.3-4.3s-4.8,3.4-4.3,6.3c0,0.1,0,0.2,0.1,0.3c6.2,26.8,23.8,49.6,48.2,62.3
			c2.6,1.4,5.9,0.5,7.3-2.1c1.4-2.6,0.5-5.9-2.1-7.3c-0.1,0-0.1-0.1-0.2-0.1C84.4,214.1,68.8,193.9,63.4,170.2z"/>
		<path class="st0" d="M115.8,282.1C54.9,268.8,10.8,213.8,10.8,151.5c0-7.6,0.6-15.2,1.9-22.6c0.6-2.9-1.3-5.8-4.3-6.3
			c-2.9-0.6-5.8,1.3-6.3,4.3c0,0.1,0,0.1,0,0.2C0.7,135.1,0,143.3,0,151.5c0,67.4,47.7,126.8,113.4,141.2c0.4,0.1,0.8,0.1,1.2,0.1
			c3,0,5.4-2.5,5.4-5.4C120,284.8,118.2,282.6,115.8,282.1L115.8,282.1z"/>
		<path class="st0" d="M138.9,17.9c1.9-0.1,3.8-0.1,5.6-0.1c63.2,0,118.3,44.9,131,106.8c0.5,2.5,2.7,4.3,5.3,4.3
			c0.4,0,0.7,0,1.1-0.1c2.9-0.6,4.8-3.5,4.2-6.4C272.5,55.5,212.9,6.9,144.5,6.9c-2,0-4.1,0-6.1,0.1c-3,0.2-5.3,2.7-5.1,5.7
			C133.5,15.7,136,18,138.9,17.9z"/>
		<path class="st0" d="M22.9,91.3l26.6,0.3l-19.2,48.2c-1,2-0.9,4.4,0.3,6.3c0.8,1.1,2.1,1.8,3.4,1.9h0.3c2.6,0,4.2-2,4.9-2.9
			l62.2-78.2c2.4-2.5,2.4-6.5-0.1-9c-1.3-1.3-3.2-1.9-5-1.8H76.6l25.9-45.7c1.4-2.2,1.4-4.9,0.2-7.1c-1.3-2.2-3.7-3.5-6.3-3.4H62.4
			c-4.2,0.1-8.1,2.5-10,6.3L16.5,81c-1.2,2.2-1.1,4.8,0.1,7C18,90.1,20.4,91.4,22.9,91.3z"/>
		<path class="st0" d="M222.8,140.3c-49.4,0-89.4,40-89.4,89.4s40,89.4,89.4,89.4s89.4-40,89.4-89.4
			C312.2,180.4,272.2,140.4,222.8,140.3z M266.4,295.5L266.4,295.5l-2.3-3.9c-0.9-1.6-2.9-2.1-4.5-1.2l-2.6,1.5
			c-1.6,0.9-2.1,2.9-1.2,4.5c0,0,0,0,0,0l2.3,3.9l0,0c-9.5,4.8-19.9,7.6-30.5,8.2V303c0-1.3-1.1-2.4-2.4-2.4h-4.8
			c-1.3,0-2.4,1.1-2.4,2.4v5.5l0,0c-10.6-0.6-21-3.4-30.5-8.2l0,0l2.3-3.9c0.9-1.6,0.4-3.6-1.2-4.5c0,0,0,0,0,0l-2.6-1.5
			c-1.6-0.9-3.6-0.4-4.5,1.2l-2.3,3.9l0,0c-8.8-5.9-16.4-13.5-22.3-22.3l3.9-2.3c1.6-0.9,2.1-2.9,1.2-4.5c0,0,0,0,0,0l-1.5-2.5
			c-0.9-1.6-2.9-2.1-4.5-1.2c0,0,0,0,0,0l-3.9,2.3c-4.8-9.5-7.6-19.9-8.2-30.5h5.5c1.3,0,2.4-1.1,2.4-2.4v-4.8
			c0-1.3-1.1-2.4-2.4-2.4H144c0.6-10.6,3.4-21,8.2-30.5l3.9,2.3c1.6,0.9,3.6,0.4,4.5-1.2l1.5-2.6c0.4-0.8,0.6-1.7,0.3-2.5
			c-0.2-0.8-0.8-1.6-1.5-2l-3.9-2.3l0,0c5.9-8.9,13.4-16.4,22.3-22.3l0,0l2.3,3.9c0.9,1.6,2.9,2.1,4.5,1.2c0,0,0,0,0,0l2.6-1.5
			c1.6-0.9,2.1-2.9,1.2-4.5c0,0,0,0,0,0l-2.3-3.9l0,0c9.5-4.8,19.8-7.5,30.4-8.2l0,0v5.5c0,1.3,1.1,2.4,2.4,2.4h4.8
			c1.3,0,2.4-1.1,2.4-2.4V151c10.6,0.6,21,3.4,30.5,8.2l0,0l-2.3,3.9c-0.9,1.6-0.4,3.6,1.2,4.5c0,0,0,0,0,0l2.5,1.5
			c1.6,0.9,3.6,0.4,4.5-1.2c0,0,0,0,0,0l2.3-3.9l0,0c8.8,5.9,16.4,13.5,22.3,22.3l0,0l-3.9,2.3c-1.6,0.9-2.1,2.9-1.2,4.5
			c0,0,0,0,0,0l1.5,2.6c0.6,1,1.7,1.7,2.9,1.6c0.6,0,1.1-0.2,1.6-0.4l3.9-2.3c4.6,9.1,7.3,19,8.1,29.1h-5.8c-1.8,0-3.3,1.5-3.3,3.4
			v5.6c0,1.8,1.5,3.3,3.3,3.3h5.8c-0.8,10.1-3.5,20-8.1,29.1l-3.9-2.3c-1.6-0.9-3.6-0.4-4.5,1.2l-1.5,2.6c-0.9,1.6-0.4,3.6,1.2,4.5
			l3.9,2.3l0,0C282.8,282.1,275.2,289.7,266.4,295.5z"/>
		<path class="st0" d="M272.6,252.4l-44.2-24.7l20.4-54.7c0.8-2.4-0.5-4.9-2.9-5.7c-2.2-0.7-4.6,0.4-5.6,2.5l-23.1,61.9l50.9,28.5
			c2.2,1.2,4.9,0.4,6.1-1.7C275.5,256.4,274.7,253.6,272.6,252.4L272.6,252.4z"/>
	</g>
</g>
<g id="Group_1116" transform="translate(-519.627 93.482)">
	<path id="Path_3045" class="st0" d="M308.3,141.8l-0.4-0.1c-0.1,0-2.1-0.6-5.3-1.8c-3.5-1.4-14.7-7.7-20-13
		c-5.4-5.5-6.3-20.3-6.4-20.9V59.9l1.3,0.1c0.1,0,12.2,0.5,20.5-1.4c3.4-0.6,6.6-2.2,9.2-4.5c1.1-1.4,3.1-1.6,4.5-0.5l0,0
		c2.4,1.7,7.6,4.5,10.8,5c5.4,0.8,10.9,1.3,16.4,1.4h1.3v45.8c0,0.7-0.6,1.3-1.3,1.3l0,0c-0.7,0-1.3-0.6-1.3-1.3l0,0V62.5
		c-5.2-0.2-10.4-0.6-15.5-1.4c-3.7-0.6-9.4-3.6-11.9-5.4c-0.4-0.3-0.6-0.4-1.2,0.2c-2.9,2.7-6.5,4.4-10.4,5.2
		c-7,1.6-16.4,1.6-19.8,1.5v43.2c0,0.1,0.9,14.4,5.6,19.2c5,5,15.8,11.2,19.1,12.5c2.3,0.9,3.9,1.4,4.6,1.6l14-5.8
		c0.7-0.3,1.4,0,1.7,0.7c0.3,0.7,0,1.4-0.7,1.7l0,0L308.3,141.8z"/>
	<path id="Path_3046" class="st0" d="M297.6,127.5c-0.2,0-0.3,0-0.5-0.1c-0.3-0.1-6.7-2.7-9.5-6.7c-3.1-4.1-4.9-9-5.4-14.1
		c-0.6-5.6,0-36,0-37.3v-1.4l1.4,0.1c0.1,0,7.8,0.7,10.6,0.3c3.2-0.6,6.3-1.5,9.2-2.9l2.7-1.3c0.6-0.3,1.4,0,1.7,0.6
		c0.3,0.6,0,1.4-0.6,1.7l0,0l-2.7,1.3c-3.2,1.5-6.5,2.6-10,3.2c-3.2,0.2-6.5,0.1-9.7-0.2c-0.1,6.1-0.5,30.9,0,35.6
		c0.4,4.7,2.1,9.1,4.9,12.8c2.4,3.4,8.3,5.8,8.4,5.8c0.7,0.3,1,1,0.7,1.7l0,0C298.6,127.2,298.2,127.5,297.6,127.5z"/>
	<path id="Path_3047" class="st0" d="M304.9,108.8l-7.5-7.5c-0.5-0.5-0.5-1.3,0-1.8s1.3-0.5,1.8,0l5.6,5.6l18.7-18.5
		c0.5-0.5,1.3-0.5,1.8,0s0.5,1.3,0,1.8L304.9,108.8z"/>
</g>
</svg>
