<svg xmlns="http://www.w3.org/2000/svg" width="81" height="91.78" viewBox="0 0 81 91.78"><g id="Group_1122" data-name="Group 1122" transform="translate(461.045 -39.799)"><path id="Path_3068" data-name="Path 3068" d="M-387.551,165.544a3.507,3.507,0,0,1-2.193-3.868c.091-1.215.017-2.443.017-3.814-.667,0-1.281.014-1.894,0a3.02,3.02,0,0,1-3.17-2.882,26.124,26.124,0,0,1,.014-3.4,3,3,0,0,1,1.544-2.474,1.188,1.188,0,0,0,.439-.842c.051-1.193-.017-2.392.043-3.584a1.033,1.033,0,0,0-.73-1.137,29.514,29.514,0,0,1-10.783-8.407,30.031,30.031,0,0,1-6.8-17.751,29.908,29.908,0,0,1,6.754-20.9,29.646,29.646,0,0,1,19.627-11.075,29.3,29.3,0,0,1,13.6,1.316,1.9,1.9,0,0,0,1.758-.045,2.044,2.044,0,0,1,2.47.461,16.323,16.323,0,0,1,1.265,1.269.879.879,0,0,0,1.15.3.885.885,0,0,0,.6-1.032c-.027-.6-.033-1.2,0-1.792a2.279,2.279,0,0,1,2.356-2.3q2.33-.035,4.661.005a2.226,2.226,0,0,1,2.322,2.307,17.989,17.989,0,0,1,0,1.882c-.034.508.184.727.63.921a.819.819,0,0,0,1.093-.233,14.47,14.47,0,0,1,1.33-1.331,2.207,2.207,0,0,1,3.221.017c1.194,1.128,2.348,2.3,3.467,3.5a2.2,2.2,0,0,1-.017,3.016,15.117,15.117,0,0,1-1.386,1.4.883.883,0,0,0-.245,1.159.87.87,0,0,0,1.017.62c.6-.034,1.2-.027,1.792-.007a2.235,2.235,0,0,1,2.272,2.186c.054,1.671.056,3.347,0,5.019a2.23,2.23,0,0,1-2.3,2.159c-.567.016-1.137.034-1.7,0a.943.943,0,0,0-1.1.64c-.252.579-.026.871.348,1.217.438.405.859.833,1.257,1.277a2.216,2.216,0,0,1,.042,3.084c-1.12,1.2-2.262,2.391-3.488,3.48a8.721,8.721,0,0,1-2.058.978c-.052.648-.108,1.533-.2,2.414-.124,1.213-.645,1.755-1.545,1.65-.836-.1-1.2-.771-1.116-1.909.1-1.28.144-2.564.191-3.847a6.514,6.514,0,0,0-.1-.947c-1.315.15-1.4.238-1.4,1.391,0,.6.017,1.2-.029,1.791a2.151,2.151,0,0,1-2.025,2.029q-2.6.071-5.2,0a2.228,2.228,0,0,1-2.088-2.187,18.434,18.434,0,0,1,0-1.882c.017-.482-.047-.82-.592-1.036a.886.886,0,0,0-1.152.29,15.54,15.54,0,0,1-1.266,1.268,2.168,2.168,0,0,1-3.145.056c-1.247-1.157-2.441-2.376-3.6-3.624a2.179,2.179,0,0,1,.005-2.879,6.776,6.776,0,0,1,1.123-1.153c.831-.617.846-1.276.189-2.094-.739,0-1.544.013-2.349,0a2.244,2.244,0,0,1-2.347-2.288q-.042-2.375-.006-4.751a2.252,2.252,0,0,1,2.311-2.328c.567-.017,1.136-.014,1.7,0,.467.016.83,0,1.047-.564a.954.954,0,0,0-.272-1.243,13.5,13.5,0,0,1-1.32-1.34,2.253,2.253,0,0,1,.073-3.157,15.522,15.522,0,0,1,1.351-1.139l-.146-.42c-2.046-.358-4.078-.882-6.14-1.044a26.79,26.79,0,0,0-19.266,5.733A26.528,26.528,0,0,0-408.114,111.9c-1.4,11.922,3.1,21.224,13.145,27.8a28.2,28.2,0,0,0,3.745,1.9,1.764,1.764,0,0,1,1.161,1.81c-.028,1.726-.008,3.452-.008,5.226h1.777v-9.47c-2.122-.5-2.524-1.018-2.524-3.22,0-.867-.019-1.734.01-2.6a2.208,2.208,0,0,1,2.285-2.248q1.657-.038,3.316,0a2.216,2.216,0,0,1,2.256,2.1,25.626,25.626,0,0,1,0,3.761c-.13,1.445-1.154,2.057-2.551,2.164v9.492h4.041V147.7c0-3.347-.006-6.693,0-10.039,0-1,.5-1.573,1.319-1.575s1.323.576,1.364,1.556c.009.209,0,.418,0,.628q0,4.706.005,9.412v.946h2.676a5.989,5.989,0,0,0,.069-.654c.007-2.988.025-5.976-.011-8.963a2.154,2.154,0,0,0-.427-1.39c-3.3-3.288-6.649-6.527-10.07-9.864.065-.036-.062.026-.179.1a2.2,2.2,0,0,1-3.009-.21c-.83-.773-1.625-1.587-2.393-2.423a2.214,2.214,0,0,1,.006-3.084c.79-.855,1.609-1.689,2.468-2.475a2.15,2.15,0,0,1,3.136-.026,31.86,31.86,0,0,1,2.527,2.54c.893,1,.731,2.106-.456,3.5.205.221.413.456.634.679,3.009,3.033,6.008,6.077,9.04,9.088a4.6,4.6,0,0,1,1.446,3.521c-.041,2.9-.012,5.8-.012,8.695v.993h1.874V133.751c-2.155-.493-2.575-1.03-2.584-3.316,0-.777-.028-1.554,0-2.33a2.3,2.3,0,0,1,2.4-2.448c1.074-.035,2.152-.033,3.226.014a2.223,2.223,0,0,1,2.27,2.279c.043.954.019,1.912.015,2.868-.008,1.848-.625,2.569-2.554,2.9v7.125c.322-.134.538-.2.736-.308a27.471,27.471,0,0,0,11.759-11.806c.18-.343.343-.7.546-1.027a1.357,1.357,0,0,1,1.83-.618,1.275,1.275,0,0,1,.519,1.846,49.366,49.366,0,0,1-2.921,4.918,29.171,29.171,0,0,1-11.68,9.642,1.161,1.161,0,0,0-.809,1.277c.055,1.163-.014,2.331.036,3.494a1.174,1.174,0,0,0,.446.84,3.329,3.329,0,0,1,1.62,2.916c.038.865.033,1.734,0,2.6a3.144,3.144,0,0,1-3.309,3.247c-.56.015-1.12,0-1.811,0,0,1.337-.069,2.588.016,3.827a3.466,3.466,0,0,1-2.222,3.848Zm40.481-54.662c-1.405-1.361-2.885-2.589-1.9-5.026s2.882-2.41,4.891-2.317V99.519c-2.109.156-3.918.066-4.9-2.322-.993-2.426.506-3.656,1.871-4.978l-2.8-2.85c-1.352,1.441-2.574,2.9-5.02,1.865-2.388-1.014-2.335-2.877-2.264-4.894h-3.992c.114,2.059.16,3.905-2.256,4.9-2.439,1.009-3.649-.472-4.936-1.818l-2.875,2.774c1.479,1.362,2.851,2.644,1.867,5.056s-2.849,2.366-4.865,2.271v4.035c2.077-.167,3.9-.1,4.88,2.28,1,2.421-.449,3.676-1.789,4.941l2.83,2.847c1.289-1.464,2.547-2.8,4.98-1.773,2.416,1.023,2.209,2.948,2.2,4.883h3.972c-.111-2.046-.133-3.892,2.253-4.906,2.447-1.039,3.664.441,5,1.844Zm-33.646,44.293v0c3.491,0,6.982-.012,10.473.01.683,0,1-.218.959-.926a13.975,13.975,0,0,1,.007-1.789c.06-.8-.233-1.113-1.072-1.1-2.744.041-5.49.015-8.234.015-4.177,0-8.354.015-12.531-.014-.778-.006-1.1.252-1.051,1.03a12.68,12.68,0,0,1,0,1.7c-.056.794.218,1.106,1.067,1.1C-387.637,155.15-384.176,155.175-380.715,155.175Zm-6.278,6.44c-.068,1.238-.068,1.24,1.049,1.239l10.461,0c1.162,0,1.205-.058.926-1.235Zm-.038-3.716.061.923h12.556c-.022-.34-.039-.618-.058-.923Zm-1.051-35.924-1.581,1.572,1.541,1.794,1.756-1.684Zm16.806,6.427v2.5h2.385v-2.5Zm-16.814,7.909h2.432v-2.47h-2.432Z" transform="translate(-38.749 -33.965)" fill="#c00"></path><path id="Path_3069" data-name="Path 3069" d="M-287.989,209.43c-2.318-.646-2.634-1.065-2.633-3.406,0-.776-.025-1.552.009-2.326a2.309,2.309,0,0,1,2.453-2.387c1.014-.013,2.028-.015,3.042,0a2.261,2.261,0,0,1,2.4,2.329c.037.863.015,1.73.015,2.594,0,2.1-.443,2.663-2.6,3.174V213.1c0,1.342,0,2.684,0,4.026-.006,1.2-.487,1.821-1.375,1.807-.859-.013-1.309-.608-1.311-1.764C-287.993,214.605-287.989,212.042-287.989,209.43Zm.135-5.381v2.5h2.408v-2.5Z" transform="translate(-132.223 -125.309)" fill="#c00"></path><path id="Path_3070" data-name="Path 3070" d="M-341.752,187.758c.537,0,1.074-.014,1.61,0a2.255,2.255,0,0,1,2.328,2.224,35.171,35.171,0,0,1-.012,3.576,2.181,2.181,0,0,1-2.18,2.169,32.42,32.42,0,0,1-3.486.007,2.219,2.219,0,0,1-2.193-2.261c-.05-1.1-.044-2.207-.01-3.308a2.306,2.306,0,0,1,2.512-2.41C-342.706,187.752-342.229,187.758-341.752,187.758Zm-1.211,5.231h2.425v-2.48h-2.425Z" transform="translate(-89.479 -114.798)" fill="#c00"></path><path id="Path_3071" data-name="Path 3071" d="M-318.181,145.748c0-.6-.025-1.194.005-1.788a2.162,2.162,0,0,1,2.1-2.131c1.19-.054,2.385-.052,3.576-.006a2.207,2.207,0,0,1,2.183,2.171c.058,1.19.058,2.386,0,3.576a2.252,2.252,0,0,1-2.349,2.2q-1.565.022-3.13,0a2.261,2.261,0,0,1-2.4-2.408c-.013-.536,0-1.073,0-1.61Zm2.732,1.255h2.4v-2.464h-2.4Z" transform="translate(-110.838 -79.133)" fill="#c00"></path><path id="Path_3072" data-name="Path 3072" d="M-276.193,42.982c0,.6.026,1.192-.006,1.785a1.39,1.39,0,0,1-1.388,1.445,1.351,1.351,0,0,1-1.282-1.444c-.026-1.19-.029-2.381,0-3.571a1.335,1.335,0,0,1,1.324-1.4,1.4,1.4,0,0,1,1.347,1.4c.006.059.005.119.005.178q0,.8,0,1.607Z" transform="translate(-141.334)" fill="#c00"></path><path id="Path_3073" data-name="Path 3073" d="M-441.541,156.1c-.006,1.216-.9,1.862-1.836,1.513-1.2-.445-2.362-.977-3.511-1.534a1.219,1.219,0,0,1-.641-1.655,1.25,1.25,0,0,1,1.681-.737,37.492,37.492,0,0,1,3.516,1.52C-441.94,155.405-441.7,155.909-441.541,156.1Z" transform="translate(-10.403 -88.289)" fill="#c00"></path><path id="Path_3074" data-name="Path 3074" d="M-456.209,208.778c-1.18-.145-2.365-.261-3.54-.444a1.339,1.339,0,0,1-1.277-1.521,1.4,1.4,0,0,1,1.666-1.118c1.153.123,2.306.255,3.452.43a1.332,1.332,0,0,1,1.238,1.468A1.411,1.411,0,0,1-456.209,208.778Z" transform="translate(0 -128.709)" fill="#c00"></path><path id="Path_3075" data-name="Path 3075" d="M-375.151,76.4c-.191.242-.419.806-.8.934a1.6,1.6,0,0,1-1.423-.231,24.37,24.37,0,0,1-2.378-3.637,1.533,1.533,0,0,1,.458-1.415,1.555,1.555,0,0,1,1.495.008c.945,1.205,1.725,2.54,2.558,3.832A2.186,2.186,0,0,1-375.151,76.4Z" transform="translate(-63.039 -24.88)" fill="#c00"></path><path id="Path_3076" data-name="Path 3076" d="M-457.283,259.881c-.9-.044-1.39-.4-1.519-1.1a1.174,1.174,0,0,1,.862-1.467,40.7,40.7,0,0,1,4.026-.741,1.172,1.172,0,0,1,1.355,1.026,1.189,1.189,0,0,1-.891,1.526C-454.776,259.445-456.127,259.659-457.283,259.881Z" transform="translate(-1.718 -168.184)" fill="#c00"></path><path id="Path_3077" data-name="Path 3077" d="M-331.694,49.826c-.015-.981.287-1.453.947-1.638a1.139,1.139,0,0,1,1.5.641,40.256,40.256,0,0,1,1.222,4.1,1.139,1.139,0,0,1-.892,1.362,1.136,1.136,0,0,1-1.519-.588C-330.95,52.34-331.341,50.936-331.694,49.826Z" transform="translate(-100.363 -6.459)" fill="#c00"></path><path id="Path_3078" data-name="Path 3078" d="M-414.51,110.9c.023,1.2-1.089,1.927-1.928,1.332a31.164,31.164,0,0,1-3.223-2.695,1.182,1.182,0,0,1,0-1.709,1.143,1.143,0,0,1,1.613-.261c1.118.84,2.174,1.766,3.224,2.693A1.6,1.6,0,0,1-414.51,110.9Z" transform="translate(-31.828 -52.401)" fill="#c00"></path><path id="Path_3079" data-name="Path 3079" d="M-439.721,307.686c-.487-.458-1.046-.739-1.121-1.116a1.724,1.724,0,0,1,.384-1.475,23.119,23.119,0,0,1,3.8-1.936,1.517,1.517,0,0,1,1.349.506c.239.336.264,1.269.036,1.421C-436.663,306.013-438.151,306.792-439.721,307.686Z" transform="translate(-15.655 -204.314)" fill="#c00"></path><path id="Path_3080" data-name="Path 3080" d="M-408.621,347.9c-.314-.24-.836-.446-.988-.808a1.593,1.593,0,0,1,.068-1.382,30.562,30.562,0,0,1,3.015-2.9,1.172,1.172,0,0,1,1.689.182,1.126,1.126,0,0,1,.111,1.619c-.976,1.035-2.038,1.992-3.085,2.958A3.035,3.035,0,0,1-408.621,347.9Z" transform="translate(-39.815 -234.887)" fill="#c00"></path><path id="Path_3081" data-name="Path 3081" d="M-220.636,131.383a9.3,9.3,0,0,1,11.84-8.928c1.072.313,1.541.905,1.312,1.764-.212.793-.929,1.137-1.961.85a6.432,6.432,0,0,0-6.4,1.494A6.688,6.688,0,0,0-216.908,135a6.562,6.562,0,0,0,8.018,2.553,6.681,6.681,0,0,0,3.955-7.442c-.063-.292-.148-.579-.194-.873a1.322,1.322,0,0,1,.952-1.595,1.321,1.321,0,0,1,1.652,1,9.155,9.155,0,0,1-.277,6.31A9.257,9.257,0,0,1-214.48,140.2,9.4,9.4,0,0,1-220.636,131.383Z" transform="translate(-186.533 -63.84)" fill="#c00"></path><path id="Path_3082" data-name="Path 3082" d="M-195.629,152.13a4.722,4.722,0,0,1-4.68-4.675,4.737,4.737,0,0,1,4.727-4.725,4.7,4.7,0,0,1,4.662,4.681A4.681,4.681,0,0,1-195.629,152.13Zm.01-2.7a1.974,1.974,0,0,0,1.989-1.985,1.982,1.982,0,0,0-1.959-2.017,2.04,2.04,0,0,0-2.012,1.99A2.023,2.023,0,0,0-195.62,149.432Z" transform="translate(-202.304 -79.864)" fill="#c00"></path></g></svg>