<?xml version="1.0" encoding="utf-8"?>
<!-- Generator: Adobe Illustrator 27.2.0, SVG Export Plug-In . SVG Version: 6.00 Build 0)  -->
<svg version="1.1" id="Capa_1" xmlns="http://www.w3.org/2000/svg" xmlns:xlink="http://www.w3.org/1999/xlink" x="0px" y="0px"
	 viewBox="0 0 303.9 306.2" style="enable-background:new 0 0 303.9 306.2;" xml:space="preserve">
<style type="text/css">
	.st0{fill:#CC0000;}
</style>
<g id="Livello_2">
	<g id="Layer_1">
		<path class="st0" d="M67.4,0C30.2,0,0,30.2,0,67.4s30.2,67.4,67.4,67.4c37.2,0,67.4-30.2,67.4-67.4C134.7,30.2,104.6,0,67.4,0z
			 M67.4,124.3c-31.4,0-56.9-25.5-56.9-56.9s25.5-56.9,56.9-56.9s56.9,25.5,56.9,56.9C124.3,98.8,98.8,124.3,67.4,124.3z"/>
		<path class="st0" d="M99.4,37.8c-1.4-1.4-3.6-1.4-5,0L55.8,76.4L40.4,61c-1.4-1.4-3.6-1.4-5,0l-6.6,6.6c-1.4,1.4-1.4,3.6,0,5
			L44.2,88l0,0l11.6,11.5l3-3l8.5-8.5l0,0l38.6-38.6c1.4-1.4,1.4-3.6,0-5L99.4,37.8z"/>
		<path class="st0" d="M269.3,221.5V173l-35-20.5V93.7l-47.8,48.7v50.1l-37,23.9v73.9c0,8.8,7.1,15.9,15.9,15.9H288
			c8.8,0,15.9-7.1,15.9-15.9v-52L269.3,221.5z M261.8,177.3v121.4h-27.4V161.2L261.8,177.3z M226.8,112.3v186.4h-32.6V145.6
			L226.8,112.3z M157.1,290.4v-69.8l29.4-19v97.1h-21.1C160.9,298.6,157.2,294.9,157.1,290.4L157.1,290.4z M296.3,290.4
			c0,4.6-3.7,8.3-8.3,8.3h-18.7v-68.8l27,13.2L296.3,290.4z"/>
		<rect x="196.4" y="147.7" class="st0" width="6.3" height="4.8"/>
		<rect x="207.3" y="147.7" class="st0" width="6.3" height="4.8"/>
		<rect x="218.1" y="147.7" class="st0" width="6.3" height="4.8"/>
		<rect x="207.3" y="137" class="st0" width="6.3" height="4.8"/>
		<rect x="218.1" y="137" class="st0" width="6.3" height="4.8"/>
		<rect x="218.1" y="126.3" class="st0" width="6.3" height="4.8"/>
		<rect x="196.4" y="159.4" class="st0" width="6.3" height="4.8"/>
		<rect x="207.3" y="159.4" class="st0" width="6.3" height="4.8"/>
		<rect x="218.1" y="159.4" class="st0" width="6.3" height="4.8"/>
		<rect x="196.4" y="170.9" class="st0" width="6.3" height="4.8"/>
		<rect x="207.3" y="170.9" class="st0" width="6.3" height="4.8"/>
		<rect x="218.1" y="170.9" class="st0" width="6.3" height="4.8"/>
		<polygon class="st0" points="245.2,291 245.2,173.8 239.7,170.6 239.7,291 		"/>
		<polygon class="st0" points="256.8,180.6 251.2,177.3 251.2,291 256.8,291 		"/>
		<rect x="196.4" y="182.4" class="st0" width="6.3" height="4.8"/>
		<rect x="207.3" y="182.4" class="st0" width="6.3" height="4.8"/>
		<rect x="218.1" y="182.4" class="st0" width="6.3" height="4.8"/>
		<rect x="196.4" y="193.9" class="st0" width="6.3" height="4.8"/>
		<rect x="207.3" y="193.9" class="st0" width="6.3" height="4.8"/>
		<rect x="218.1" y="193.9" class="st0" width="6.3" height="4.8"/>
		<polygon class="st0" points="163.9,291 169.2,291 169.2,221.6 163.9,224.8 		"/>
		<polygon class="st0" points="175.2,216.6 175.2,291 180.4,291 180.4,213.4 		"/>
		<polygon class="st0" points="280,291 280,243.1 274.9,240.8 274.9,291 		"/>
		<polygon class="st0" points="290.5,249.1 285.4,246.8 285.4,291 290.5,291 		"/>
		<rect x="196.4" y="205.4" class="st0" width="6.3" height="4.8"/>
		<rect x="207.3" y="205.4" class="st0" width="6.3" height="4.8"/>
		<rect x="218.1" y="205.4" class="st0" width="6.3" height="4.8"/>
		<rect x="196.4" y="216.8" class="st0" width="6.3" height="4.8"/>
		<rect x="207.3" y="216.8" class="st0" width="6.3" height="4.8"/>
		<rect x="218.1" y="216.8" class="st0" width="6.3" height="4.8"/>
		<rect x="196.4" y="228.3" class="st0" width="6.3" height="4.8"/>
		<rect x="207.3" y="228.3" class="st0" width="6.3" height="4.8"/>
		<rect x="218.1" y="228.3" class="st0" width="6.3" height="4.8"/>
		<rect x="196.4" y="239.8" class="st0" width="6.3" height="4.8"/>
		<rect x="207.3" y="239.8" class="st0" width="6.3" height="4.8"/>
		<rect x="218.1" y="239.8" class="st0" width="6.3" height="4.8"/>
		<rect x="196.4" y="251.3" class="st0" width="6.3" height="4.8"/>
		<rect x="207.3" y="251.3" class="st0" width="6.3" height="4.8"/>
		<rect x="218.1" y="251.3" class="st0" width="6.3" height="4.8"/>
		<rect x="196.4" y="262.8" class="st0" width="6.3" height="4.8"/>
		<rect x="207.3" y="262.8" class="st0" width="6.3" height="4.8"/>
		<rect x="218.1" y="262.8" class="st0" width="6.3" height="4.8"/>
		<rect x="196.4" y="274.3" class="st0" width="6.3" height="4.8"/>
		<rect x="207.3" y="274.3" class="st0" width="6.3" height="4.8"/>
		<rect x="218.1" y="274.3" class="st0" width="6.3" height="4.8"/>
		<rect x="196.4" y="285.8" class="st0" width="6.3" height="4.8"/>
		<rect x="207.3" y="285.8" class="st0" width="6.3" height="4.8"/>
		<rect x="218.1" y="285.8" class="st0" width="6.3" height="4.8"/>
		<path class="st0" d="M119.5,235.5c0.5,0.1,1,0.2,1.5,0.2c3,0,5.4-2.4,5.4-5.4c0-2.4-1.6-4.6-4-5.2c-29.2-8.1-51.6-31.5-58.6-60.9
			c-0.7-2.9-3.6-4.7-6.5-4c-2.9,0.7-4.7,3.6-4,6.5C61.2,200,86.6,226.3,119.5,235.5z"/>
		<path class="st0" d="M157.2,56.9c-0.6,2.9,1.3,5.8,4.2,6.4c0,0,0,0,0,0c16.8,3.4,32.1,11.9,43.9,24.4c2.1,2.1,5.5,2.1,7.7,0
			c2-2,2.1-5.3,0.2-7.4c-13.3-14.1-30.6-23.7-49.6-27.5C160.7,52.1,157.9,53.9,157.2,56.9C157.2,56.9,157.2,56.9,157.2,56.9z"/>
		<path class="st0" d="M123.9,277c-65.1-10.1-113-66.2-112.7-132.1c0-1.4,0-2.9,0.1-4.3c0.2-3-2.1-5.5-5.1-5.7s-5.5,2.1-5.7,5.1
			c0,0.1,0,0.2,0,0.3c0,1.5-0.1,3.1-0.1,4.6C0.4,216,52,276.5,122.2,287.6c0.3,0,0.6,0.1,0.8,0.1c3,0,5.4-2.4,5.4-5.4
			C128.5,279.7,126.5,277.4,123.9,277L123.9,277z"/>
		<path class="st0" d="M278.6,144.9c0,2,0,4-0.1,5.9c-0.1,3,2.2,5.5,5.2,5.6h0.2c2.9,0,5.3-2.3,5.4-5.2c0.1-2.1,0.1-4.2,0.1-6.4
			c0-79.7-64.8-144.5-144.5-144.5h-2.3c-3-0.1-5.5,2.3-5.6,5.3c-0.1,3,2.3,5.5,5.3,5.6c0.1,0,0.3,0,0.4,0h2.1
			C218.6,11.2,278.6,71.2,278.6,144.9z"/>
	</g>
</g>
<g id="Group_1116" transform="translate(-519.627 93.482)">
	<path id="Path_3045" class="st0" d="M294.7,78.2l-0.4-0.1c-0.1,0-2.1-0.6-5.3-1.8c-3.5-1.4-14.7-7.7-20-13
		c-5.4-5.5-6.3-20.3-6.4-20.9V-3.7l1.3,0.1c0.1,0,12.2,0.5,20.5-1.4c3.4-0.6,6.6-2.2,9.2-4.5c1.1-1.4,3.1-1.6,4.5-0.5c0,0,0,0,0,0
		c2.4,1.7,7.6,4.5,10.8,5c5.4,0.8,10.9,1.3,16.4,1.4l1.3,0v45.8c0,0.7-0.6,1.3-1.3,1.3l0,0c-0.7,0-1.3-0.6-1.3-1.3c0,0,0,0,0,0V-1.1
		c-5.2-0.2-10.4-0.6-15.5-1.4c-3.7-0.6-9.4-3.6-11.9-5.4c-0.4-0.3-0.6-0.4-1.2,0.2c-2.9,2.7-6.5,4.4-10.4,5.2
		C278-0.9,268.6-0.9,265.2-1v43.2c0,0.1,0.9,14.4,5.6,19.2c5,5,15.8,11.2,19.1,12.5c2.3,0.9,3.9,1.4,4.6,1.6l14-5.8
		c0.7-0.3,1.4,0,1.7,0.7c0.3,0.7,0,1.4-0.7,1.7c0,0,0,0,0,0L294.7,78.2z"/>
	<path id="Path_3046" class="st0" d="M284,63.9c-0.2,0-0.3,0-0.5-0.1c-0.3-0.1-6.7-2.7-9.5-6.7c-3.1-4.1-4.9-9-5.4-14.1
		c-0.6-5.6,0-36,0-37.3l0-1.4l1.4,0.1c0.1,0,7.8,0.7,10.6,0.3c3.2-0.6,6.3-1.5,9.2-2.9l2.7-1.3c0.6-0.3,1.4,0,1.7,0.6
		c0.3,0.6,0,1.4-0.6,1.7c0,0,0,0,0,0l-2.7,1.3c-3.2,1.5-6.5,2.6-10,3.2c-3.2,0.2-6.5,0.1-9.7-0.2c-0.1,6.1-0.5,30.9,0,35.6
		c0.4,4.7,2.1,9.1,4.9,12.8c2.4,3.4,8.3,5.8,8.4,5.8c0.7,0.3,1,1,0.7,1.7c0,0,0,0,0,0C285,63.6,284.6,63.9,284,63.9z"/>
	<path id="Path_3047" class="st0" d="M291.3,45.2l-7.5-7.5c-0.5-0.5-0.5-1.3,0-1.8c0.5-0.5,1.3-0.5,1.8,0l5.6,5.6L309.9,23
		c0.5-0.5,1.3-0.5,1.8,0c0.5,0.5,0.5,1.3,0,1.8L291.3,45.2z"/>
</g>
</svg>
