<?xml version="1.0" encoding="utf-8"?>
<!-- Generator: Adobe Illustrator 27.2.0, SVG Export Plug-In . SVG Version: 6.00 Build 0)  -->
<svg version="1.1" id="Capa_1" xmlns="http://www.w3.org/2000/svg" xmlns:xlink="http://www.w3.org/1999/xlink" x="0px" y="0px"
	 viewBox="0 0 307.7 311.9" style="enable-background:new 0 0 307.7 311.9;" xml:space="preserve">
<style type="text/css">
	.st0{fill:#CC0000;}
</style>
<g id="Livello_2">
	<g id="Layer_1">
		<path class="st0" d="M297.2,188.4h-20.6v-29.3c0-6.9-5.6-12.4-12.4-12.4c-1.4,0-2.7,0.2-4,0.7l-113.6,38.6
			c-2.3,0.8-4.5,2.1-6.3,3.8l0,0l0,0c-3.3,1.9-5.4,5.3-5.4,9.1v102.5c0,5.8,4.7,10.5,10.5,10.5h151.8c5.8,0,10.5-4.7,10.5-10.5
			V198.9C307.7,193.1,303,188.5,297.2,188.4z M263.5,157.3c0.6-0.2,1.3-0.1,1.8,0.3c0.5,0.4,0.8,1,0.8,1.6v29.3h-94.5L263.5,157.3z
			 M297.2,301.4H145.3v-11.4l0,0v-88c0-1.1,0.3-2.2,0.9-3.2h151l0,0.1v27.5H229c-7.2,0-13,5.8-13,13v21.4c0,7.2,5.8,13,13,13h68.2
			L297.2,301.4z M297.2,236.9v26.5H229c-1.4,0-2.6-1.1-2.6-2.5v-21.4c0-1.4,1.1-2.6,2.6-2.6l0,0L297.2,236.9L297.2,236.9z"/>
		<path class="st0" d="M163.9,211.2c-2.9,0-5.2,2.3-5.2,5.2v67.4c0,2.9,2.3,5.2,5.2,5.2c2.9,0,5.2-2.3,5.2-5.2v-67.4
			C169.1,213.6,166.8,211.2,163.9,211.2z"/>
		<path class="st0" d="M242.3,256c3.2,0,5.9-2.6,5.9-5.9c0-3.2-2.6-5.9-5.9-5.9c-3.2,0-5.9,2.6-5.9,5.9c0,0,0,0,0,0
			C236.4,253.4,239.1,256,242.3,256z"/>
		<path class="st0" d="M113.8,55h-4.3l0,0l0.1-15c0.2-21.9-17.4-39.8-39.3-40c0,0,0,0,0,0C59.7-0.1,49.5,4,42.1,11.4
			c-7.5,7.4-11.8,17.5-11.8,28c0,4.2,3.4,7.6,7.6,7.7c0,0,0,0,0,0h0.1c4.2,0,7.6-3.4,7.6-7.6C45.8,26,57.1,15.4,70.6,15.7
			c13.1,0.3,23.6,11,23.8,24.2l-0.1,15l0,0l-68.7-0.5c-3.8,0-7,3.1-7,6.9L18,134.1c0,3.8,3.1,7,6.9,7l88.3,0.7c3.8,0,7-3.1,7-6.9
			l0.6-72.9C120.7,58.2,117.6,55,113.8,55z M78.9,115.5l-19.5-0.2l4.9-16.7c-4.6-2.8-6.1-8.7-3.3-13.3c2.8-4.6,8.7-6.1,13.3-3.3
			c4.6,2.8,6.1,8.7,3.3,13.3c-0.8,1.4-2,2.6-3.4,3.4L78.9,115.5z"/>
		<path class="st0" d="M114.8,292.5C54.5,278.9,10.8,224.1,10.8,162.3c0-1.3,0-2.5,0-3.8c0.1-2.9-2.3-5.4-5.2-5.5
			c-3,0-5.4,2.3-5.6,5.3c0,1.4-0.1,2.7-0.1,4.1C0,229.7,46.7,288.1,112.4,303c2.9,0.7,5.8-1.2,6.5-4.1
			C119.5,296,117.7,293.1,114.8,292.5L114.8,292.5L114.8,292.5z"/>
		<path class="st0" d="M140.3,28.9h0.1c1.3,0,2.5,0,3.8,0c62-0.2,115.9,42.4,129.9,102.8c0.6,2.4,2.8,4.2,5.3,4.2
			c0.4,0,0.8,0,1.2-0.1c2.9-0.7,4.7-3.6,4-6.5c0,0,0,0,0,0C269.5,63.9,211.3,17.8,144.3,18c-1.4,0-2.7,0-4.1,0.1
			c-3,0.2-5.3,2.7-5.1,5.7C135.2,26.6,137.5,28.8,140.3,28.9L140.3,28.9z"/>
		<path class="st0" d="M103.1,246.9c0.7,0.3,1.5,0.5,2.3,0.5c3,0,5.4-2.4,5.4-5.4c0-2.1-1.2-4-3.1-4.9
			c-25.4-11.9-43.2-35.8-47.2-63.6c-0.5-2.9-3.4-4.9-6.3-4.4c-2.8,0.5-4.7,3.1-4.4,5.9C54.3,206.4,74.4,233.4,103.1,246.9z"/>
		<path class="st0" d="M157.5,67.9c-2.9-0.6-5.8,1.3-6.3,4.3s1.3,5.8,4.3,6.3c0.1,0,0.3,0.1,0.4,0.1c28.8,4.5,53.2,23.5,64.6,50.3
			c1.2,2.8,4.3,4.1,7.1,2.9c2.8-1.2,4.1-4.3,2.9-7.1C217.6,94.3,190,72.9,157.5,67.9z"/>
	</g>
</g>
<g id="Group_1116" transform="translate(-519.627 93.482)">
	<path id="Path_3045" class="st0" d="M257.5,86.8l-0.4-0.1c-0.1,0-2.1-0.6-5.3-1.8c-3.5-1.4-14.7-7.7-20-13
		c-5.4-5.5-6.3-20.3-6.4-20.9V4.9l1.3,0.1c0.1,0,12.2,0.5,20.5-1.4c3.4-0.6,6.6-2.2,9.2-4.5c1.1-1.4,3.1-1.6,4.5-0.5l0,0
		c2.4,1.7,7.6,4.5,10.8,5c5.4,0.8,10.9,1.3,16.4,1.4h1.3v45.8c0,0.7-0.6,1.3-1.3,1.3l0,0c-0.7,0-1.3-0.6-1.3-1.3l0,0V7.5
		c-5.2-0.2-10.4-0.6-15.5-1.4c-3.7-0.6-9.4-3.6-11.9-5.4c-0.4-0.3-0.6-0.4-1.2,0.2c-2.9,2.7-6.5,4.4-10.4,5.2
		c-7,1.6-16.4,1.6-19.8,1.5v43.2c0,0.1,0.9,14.4,5.6,19.2c5,5,15.8,11.2,19.1,12.5c2.3,0.9,3.9,1.4,4.6,1.6l14-5.8
		c0.7-0.3,1.4,0,1.7,0.7c0.3,0.7,0,1.4-0.7,1.7l0,0L257.5,86.8z"/>
	<path id="Path_3046" class="st0" d="M246.8,72.5c-0.2,0-0.3,0-0.5-0.1c-0.3-0.1-6.7-2.7-9.5-6.7c-3.1-4.1-4.9-9-5.4-14.1
		c-0.6-5.6,0-36,0-37.3v-1.4l1.4,0.1c0.1,0,7.8,0.7,10.6,0.3c3.2-0.6,6.3-1.5,9.2-2.9l2.7-1.3c0.6-0.3,1.4,0,1.7,0.6
		c0.3,0.6,0,1.4-0.6,1.7l0,0l-2.7,1.3c-3.2,1.5-6.5,2.6-10,3.2c-3.2,0.2-6.5,0.1-9.7-0.2c-0.1,6.1-0.5,30.9,0,35.6
		c0.4,4.7,2.1,9.1,4.9,12.8c2.4,3.4,8.3,5.8,8.4,5.8c0.7,0.3,1,1,0.7,1.7l0,0C247.8,72.2,247.4,72.5,246.8,72.5z"/>
	<path id="Path_3047" class="st0" d="M254.1,53.8l-7.5-7.5c-0.5-0.5-0.5-1.3,0-1.8s1.3-0.5,1.8,0l5.6,5.6l18.7-18.5
		c0.5-0.5,1.3-0.5,1.8,0s0.5,1.3,0,1.8L254.1,53.8z"/>
</g>
</svg>
