<?xml version="1.0" encoding="utf-8"?>
<!-- Generator: Adobe Illustrator 27.2.0, SVG Export Plug-In . SVG Version: 6.00 Build 0)  -->
<svg version="1.1" id="Capa_1" xmlns="http://www.w3.org/2000/svg" xmlns:xlink="http://www.w3.org/1999/xlink" x="0px" y="0px"
	 viewBox="0 0 227.8 275.3" style="enable-background:new 0 0 227.8 275.3;" xml:space="preserve">
<style type="text/css">
	.st0{fill:#CC0000;}
</style>
<g id="Livello_2">
	<g id="Layer_1">
		<path class="st0" d="M31.1,33.6c0-3.5-2.8-6.4-6.4-6.4c-3.5,0-6.4,2.8-6.4,6.4v78.6H0V216h18.4v52.9c0,3.5,2.8,6.4,6.4,6.4
			s6.4-2.8,6.4-6.4V216h18.4V112.2H31.1V33.6z"/>
		<path class="st0" d="M121.3,6.4c0-3.5-2.8-6.4-6.4-6.4s-6.4,2.8-6.4,6.4v44H90.2V183h18.4v67c0,3.5,2.8,6.4,6.4,6.4
			s6.4-2.8,6.4-6.4v-67h18.4V50.3h-18.4V6.4z"/>
		<path class="st0" d="M227.8,127.1h-18.4v-88c0-3.5-2.8-6.4-6.4-6.4s-6.4,2.8-6.4,6.4v88h-18.4V212h18.4v49.1
			c0,3.5,2.8,6.4,6.4,6.4s6.4-2.8,6.4-6.4V212h18.4L227.8,127.1z"/>
	</g>
</g>
<g id="Group_1116" transform="translate(-519.627 93.482)">
	<path id="Path_3045" class="st0" d="M269.4,102.2l-0.4-0.1c-0.1,0-2.1-0.6-5.3-1.8c-3.5-1.4-14.7-7.7-20-13
		c-5.4-5.5-6.3-20.3-6.4-20.9V20.3l1.3,0.1c0.1,0,12.2,0.5,20.5-1.4c3.4-0.6,6.6-2.2,9.2-4.5c1.1-1.4,3.1-1.6,4.5-0.5l0,0
		c2.4,1.7,7.6,4.5,10.8,5c5.4,0.8,10.9,1.3,16.4,1.4h1.3v45.8c0,0.7-0.6,1.3-1.3,1.3l0,0c-0.7,0-1.3-0.6-1.3-1.3l0,0V22.9
		c-5.2-0.2-10.4-0.6-15.5-1.4c-3.7-0.6-9.4-3.6-11.9-5.4c-0.4-0.3-0.6-0.4-1.2,0.2c-2.9,2.7-6.5,4.4-10.4,5.2
		c-7,1.6-16.4,1.6-19.8,1.5v43.2c0,0.1,0.9,14.4,5.6,19.2c5,5,15.8,11.2,19.1,12.5c2.3,0.9,3.9,1.4,4.6,1.6l14-5.8
		c0.7-0.3,1.4,0,1.7,0.7c0.3,0.7,0,1.4-0.7,1.7l0,0L269.4,102.2z"/>
	<path id="Path_3046" class="st0" d="M258.7,87.9c-0.2,0-0.3,0-0.5-0.1c-0.3-0.1-6.7-2.7-9.5-6.7c-3.1-4.1-4.9-9-5.4-14.1
		c-0.6-5.6,0-36,0-37.3v-1.4l1.4,0.1c0.1,0,7.8,0.7,10.6,0.3c3.2-0.6,6.3-1.5,9.2-2.9l2.7-1.3c0.6-0.3,1.4,0,1.7,0.6
		c0.3,0.6,0,1.4-0.6,1.7l0,0l-2.7,1.3c-3.2,1.5-6.5,2.6-10,3.2c-3.2,0.2-6.5,0.1-9.7-0.2c-0.1,6.1-0.5,30.9,0,35.6
		c0.4,4.7,2.1,9.1,4.9,12.8c2.4,3.4,8.3,5.8,8.4,5.8c0.7,0.3,1,1,0.7,1.7l0,0C259.7,87.6,259.3,87.9,258.7,87.9z"/>
	<path id="Path_3047" class="st0" d="M266,69.2l-7.5-7.5c-0.5-0.5-0.5-1.3,0-1.8s1.3-0.5,1.8,0l5.6,5.6L284.6,47
		c0.5-0.5,1.3-0.5,1.8,0s0.5,1.3,0,1.8L266,69.2z"/>
</g>
</svg>
