<svg xmlns="http://www.w3.org/2000/svg" width="37" height="36" viewBox="0 0 37 36" fill="none"><path d="M3.8294 5.8845V17.3055C3.82943 20.9155 4.92337 24.4407 6.96703 27.4165C9.01069 30.3923 11.9081 32.6789 15.2774 33.975L16.8389 34.575C17.8788 34.975 19.03 34.975 20.0699 34.575L21.6314 33.975C25.0007 32.6789 27.8981 30.3923 29.9418 27.4165C31.9854 24.4407 33.0794 20.9155 33.0794 17.3055V5.8845C33.0823 5.45472 32.9609 5.03327 32.7299 4.67083C32.499 4.30839 32.1682 4.0204 31.7774 3.8415C27.5772 2.00818 23.0371 1.08249 18.4544 1.125C13.8717 1.08249 9.33164 2.00818 5.1314 3.8415C4.74061 4.0204 4.40984 4.30839 4.17886 4.67083C3.94787 5.03327 3.82652 5.45472 3.8294 5.8845Z" stroke="white" stroke-width="2" stroke-linecap="round" stroke-linejoin="round"></path><path d="M25.9883 16.9891C25.7727 18.4828 25.1324 19.8832 24.1436 21.0234C23.1548 22.1636 21.8592 22.9957 20.411 23.4206C18.9628 23.8454 17.423 23.8452 15.9749 23.4199C14.5269 22.9946 13.2315 22.1622 12.243 21.0216C11.2546 19.8811 10.6147 18.4806 10.3995 16.9868C10.1844 15.4929 10.403 13.9687 11.0294 12.5956C11.6558 11.2225 12.6636 10.0583 13.9328 9.24163C15.2019 8.42494 16.6791 7.99017 18.1883 7.98906" stroke="white" stroke-width="2" stroke-linecap="round" stroke-linejoin="round"></path><path d="M26.0632 9.95706L18.8842 17.1361C18.6994 17.3204 18.4491 17.4239 18.1882 17.4239C17.9272 17.4239 17.6769 17.3204 17.4922 17.1361L15.2422 14.8786" stroke="white" stroke-width="2" stroke-linecap="round" stroke-linejoin="round"></path></svg>