<svg xmlns="http://www.w3.org/2000/svg" width="90.328" height="87.989" viewBox="0 0 90.328 87.989">
  <g id="Group_1117" data-name="Group 1117" transform="translate(-52.742 64.913)">
    <path id="Path_3048" data-name="Path 3048" d="M123.441-32.814h-2.711c0-16.2-13.729-29.388-30.608-29.388S59.515-49.018,59.515-32.814H56.8c0-17.7,14.949-32.1,33.319-32.1S123.441-50.514,123.441-32.814Z" transform="translate(6.948)" fill="#c00"/>
    <path id="Path_3049" data-name="Path 3049" d="M77.4-20.952h-10.7c-7.693,0-13.951-4.459-13.951-9.94v-12.74c0-5.481,6.259-9.94,13.951-9.94H77.4ZM66.693-50.86c-6.093,0-11.241,3.31-11.241,7.229v12.74c0,3.92,5.147,7.229,11.241,7.229h7.994v-27.2Z" transform="translate(0 19.402)" fill="#c00"/>
    <path id="Path_3050" data-name="Path 3050" d="M87.675-20.952h-10.7V-53.571h10.7c7.693,0,13.949,4.459,13.949,9.94v12.74C101.624-25.411,95.368-20.952,87.675-20.952Zm-7.994-2.711h7.994c6.091,0,11.238-3.31,11.238-7.229v-12.74c0-3.92-5.147-7.229-11.238-7.229H79.682Z" transform="translate(41.446 19.402)" fill="#c00"/>
    <path id="Path_3051" data-name="Path 3051" d="M77.267-22.744c-5.641,0-10.233-3.451-10.233-7.693s4.592-7.69,10.233-7.69S87.5-34.676,87.5-30.437,82.91-22.744,77.267-22.744Zm0-12.672c-4.077,0-7.522,2.282-7.522,4.979s3.445,4.982,7.522,4.982,7.525-2.282,7.525-4.982S81.346-35.416,77.267-35.416Z" transform="translate(24.448 45.82)" fill="#c00"/>
    <path id="Path_3052" data-name="Path 3052" d="M74.085-22.766v-2.711c8.151,0,14.784-7.384,14.784-16.461h2.711C91.579-31.367,83.729-22.766,74.085-22.766Z" transform="translate(36.509 39.301)" fill="#c00"/>
  </g>
</svg>
