<svg xmlns="http://www.w3.org/2000/svg" width="88.77" height="88.472" viewBox="0 0 88.77 88.472">
  <g id="Group_1120" data-name="Group 1120" transform="translate(-222.634 41.121)">
    <path id="Path_3053" data-name="Path 3053" d="M295.414,19.463l-2.377-.948A41.7,41.7,0,0,0,254.3-38.559a41.575,41.575,0,0,0-22.245,6.424L230.685-34.3A44.115,44.115,0,0,1,254.3-41.121a44.261,44.261,0,0,1,41.116,60.584Z" transform="translate(12.572)" fill="#c00"/>
    <path id="Path_3054" data-name="Path 3054" d="M266.87,35.029A44.287,44.287,0,0,1,222.634-9.207a42.537,42.537,0,0,1,7.085-24.023l2.131,1.422a39.5,39.5,0,0,0-6.655,22.6A41.721,41.721,0,0,0,266.87,32.467a41.5,41.5,0,0,0,15.047-2.8l.925,2.39A44.1,44.1,0,0,1,266.87,35.029Z" transform="translate(0 12.323)" fill="#c00"/>
    <rect id="Rectangle_688" data-name="Rectangle 688" width="2.562" height="85.76" transform="translate(265.588 -39.688)" fill="#c00"/>
    <rect id="Rectangle_689" data-name="Rectangle 689" width="86.66" height="2.562" transform="translate(223.166 2.736)" fill="#c00"/>
    <rect id="Rectangle_690" data-name="Rectangle 690" width="23.927" height="2.561" transform="translate(240.591 28.485) rotate(-45)" fill="#c00"/>
    <rect id="Rectangle_691" data-name="Rectangle 691" width="21.022" height="2.562" transform="matrix(0.696, -0.718, 0.718, 0.696, 265.953, -22.972)" fill="#c00"/>
    <rect id="Rectangle_692" data-name="Rectangle 692" width="5.514" height="2.561" transform="translate(285.244 -28.979) rotate(-44.525)" fill="#c00"/>
    <path id="Path_3055" data-name="Path 3055" d="M247.426-36.025" transform="translate(38.715 7.958)" fill="#c00" stroke="#242424" stroke-miterlimit="10" stroke-width="1"/>
    <rect id="Rectangle_693" data-name="Rectangle 693" width="23.079" height="2.561" transform="translate(266.264 -10.323) rotate(-44.525)" fill="#c00"/>
    <rect id="Rectangle_694" data-name="Rectangle 694" width="41.299" height="2.561" transform="translate(267.094 1.813) rotate(-44.921)" fill="#c00"/>
    <rect id="Rectangle_695" data-name="Rectangle 695" width="21.931" height="2.561" transform="translate(285.702 -3.939) rotate(-45)" fill="#c00"/>
    <path id="Path_3056" data-name="Path 3056" d="M247.608-26.252" transform="translate(38.999 23.219)" fill="#c00" stroke="#242424" stroke-miterlimit="10" stroke-width="1"/>
    <rect id="Rectangle_696" data-name="Rectangle 696" width="5.981" height="2.561" transform="translate(278.652 3.111) rotate(-45)" fill="#c00"/>
    <rect id="Rectangle_697" data-name="Rectangle 697" width="21.02" height="2.562" transform="matrix(0.696, -0.718, 0.718, 0.696, 291.641, 2.714)" fill="#c00"/>
    <g id="Group_1118" data-name="Group 1118" transform="translate(229.256 -41.098)">
      <path id="Path_3057" data-name="Path 3057" d="M234.159-3.505h-8.94V-41.112h8.94Zm-6.378-2.562H231.6V-38.55h-3.817Z" transform="translate(-225.219 41.112)" fill="#c00"/>
      <path id="Path_3058" data-name="Path 3058" d="M236.649-7.156h-8.94v-31.6h8.94Zm-6.378-2.562h3.817V-36.191h-3.817Z" transform="translate(-221.331 44.796)" fill="#c00"/>
      <path id="Path_3059" data-name="Path 3059" d="M239.139-10.592H230.2V-36.574h8.94Zm-6.378-2.562h3.817V-34.012h-3.817Z" transform="translate(-217.442 48.199)" fill="#c00"/>
      <path id="Path_3060" data-name="Path 3060" d="M241.632-14.187h-8.94V-34.272h8.94Zm-6.378-2.562h3.817V-31.71h-3.817Z" transform="translate(-213.549 51.793)" fill="#c00"/>
      <path id="Path_3061" data-name="Path 3061" d="M244.122-17.686h-8.94V-32.031h8.94Zm-6.378-2.562h3.817v-9.222h-3.817Z" transform="translate(-209.661 55.293)" fill="#c00"/>
    </g>
    <path id="Path_3062" data-name="Path 3062" d="M234.141-11.018a5.039,5.039,0,0,1-5.031-5.034,5.039,5.039,0,0,1,5.031-5.034,5.041,5.041,0,0,1,5.034,5.034A5.041,5.041,0,0,1,234.141-11.018Zm0-7.505a2.473,2.473,0,0,0-2.469,2.472,2.473,2.473,0,0,0,2.469,2.472,2.475,2.475,0,0,0,2.472-2.472A2.475,2.475,0,0,0,234.141-18.523Z" transform="translate(10.113 31.288)" fill="#c00"/>
    <path id="Path_3063" data-name="Path 3063" d="M238.57-6.592a5.039,5.039,0,0,1-5.034-5.031,5.041,5.041,0,0,1,5.034-5.034,5.041,5.041,0,0,1,5.034,5.034A5.039,5.039,0,0,1,238.57-6.592Zm0-7.5a2.475,2.475,0,0,0-2.472,2.472,2.473,2.473,0,0,0,2.472,2.469,2.473,2.473,0,0,0,2.472-2.469A2.475,2.475,0,0,0,238.57-14.1Z" transform="translate(17.026 38.203)" fill="#c00"/>
    <path id="Path_3064" data-name="Path 3064" d="M261.362,16.066A18.6,18.6,0,0,1,242.783-2.51a18.6,18.6,0,0,1,18.579-18.577A18.6,18.6,0,0,1,279.939-2.51,18.385,18.385,0,0,1,275.9,9.055l-2.006-1.6a15.839,15.839,0,0,0,3.481-9.97,16.034,16.034,0,0,0-16.015-16.015A16.035,16.035,0,0,0,245.345-2.51,16.033,16.033,0,0,0,261.362,13.5a15.949,15.949,0,0,0,8.617-2.513l1.381,2.159A18.516,18.516,0,0,1,261.362,16.066Z" transform="translate(31.465 31.285)" fill="#c00"/>
    <g id="Group_1119" data-name="Group 1119" transform="translate(286.04 18.622)">
      <path id="Path_3065" data-name="Path 3065" d="M253.925-6.681c-5.328-.628-6.494-3.23-6.537-5.305a4.346,4.346,0,0,1,1.335-3.158,7.579,7.579,0,0,1,5.354-2.036c3.75,0,6.686,2.27,6.686,5.169H258.2c0-1.414-1.888-2.608-4.124-2.608a5.078,5.078,0,0,0-3.527,1.268,1.882,1.882,0,0,0-.6,1.317c.013.571.046,2.311,4.275,2.81Z" transform="translate(-247.387 18.763)" fill="#c00"/>
      <path id="Path_3066" data-name="Path 3066" d="M254.075-3.58c-3.75,0-6.688-2.272-6.688-5.172h2.562c0,1.414,1.891,2.61,4.127,2.61,1.24,0,4.124-.254,4.124-2.61,0-.989-2.1-2.515-4.329-2.779l.3-2.544c3.184.379,6.591,2.605,6.591,5.323C260.761-5.563,258.2-3.58,254.075-3.58Z" transform="translate(-247.386 23.613)" fill="#c00"/>
      <rect id="Rectangle_698" data-name="Rectangle 698" width="2.562" height="2.401" transform="translate(5.408)" fill="#c00"/>
      <rect id="Rectangle_699" data-name="Rectangle 699" width="2.562" height="2.403" transform="translate(5.408 19.112)" fill="#c00"/>
    </g>
  </g>
</svg>
