<svg xmlns="http://www.w3.org/2000/svg" width="110.109" height="88.472" viewBox="0 0 110.109 88.472">
  <g id="Group_904" data-name="Group 904" transform="translate(-396.366 -37.851)">
    <path id="Path_3033" data-name="Path 3033" d="M445.468,126.324a44.242,44.242,0,0,1-38.889-23.136l2.788-1.514a41.065,41.065,0,1,0,2.048-42.544l-2.627-1.776a44.236,44.236,0,1,1,36.68,68.97Z" transform="translate(16.775)" fill="#c00"/>
    <g id="Group_902" data-name="Group 902" transform="translate(396.366 65.862)">
      <rect id="Rectangle_533" data-name="Rectangle 533" width="28.031" height="3.172" transform="translate(10.571)" fill="#c00"/>
      <rect id="Rectangle_534" data-name="Rectangle 534" width="28.031" height="3.172" transform="translate(0 13.213)" fill="#c00"/>
      <rect id="Rectangle_535" data-name="Rectangle 535" width="28.031" height="3.172" transform="translate(10.571 26.426)" fill="#c00"/>
    </g>
    <g id="Group_903" data-name="Group 903" transform="translate(451.467 60.474)">
      <path id="Path_3034" data-name="Path 3034" d="M425.269,67.5a8.052,8.052,0,1,1,8.049-8.052A8.062,8.062,0,0,1,425.269,67.5Zm0-12.93a4.88,4.88,0,1,0,4.878,4.878A4.884,4.884,0,0,0,425.269,54.573Z" transform="translate(-417.217 -38.219)" fill="#c00"/>
      <rect id="Rectangle_536" data-name="Rectangle 536" width="22.788" height="3.171" transform="translate(10.928 16.114) rotate(-45)" fill="#c00"/>
    </g>
  </g>
</svg>
